<?xml version="1.0" encoding="UTF-8" standalone="no"?>
<!-- Created with Inkscape (http://www.inkscape.org/) -->

<svg
   viewBox = "0 0 744 1052"
   width="744.09448"
   height="1052.3622"
   id="svg2">
  <defs
     id="defs4" />
  <metadata
     id="metadata7">
    <rdf:RDF>
      <cc:Work
         rdf:about="">
        <dc:format>image/svg+xml</dc:format>
        <dc:type
           rdf:resource="http://purl.org/dc/dcmitype/StillImage" />
        <dc:title></dc:title>
      </cc:Work>
    </rdf:RDF>
  </metadata>
  <g
     id="layer1">
    <path
       d="m 103.58589,211.20172 c 4.38283,0.0826 8.76699,0.0516 13.1504,0.0471 4.06944,0.18234 8.08854,-0.32532 12.09962,-0.9336 4.24232,-0.84993 8.55454,-1.30475 12.76462,-2.30441 3.88761,-1.04257 7.77726,-2.09334 11.69657,-3.01203 0.45995,-0.1503 0.9199,-0.30061 1.37985,-0.45091 0,0 -4.61065,3.56443 -4.61065,3.56443 l 0,0 c -0.45666,0.13119 -0.91332,0.26237 -1.36998,0.39355 -3.90546,0.91302 -7.78437,1.9418 -11.65806,2.97995 -4.22317,0.94099 -8.53356,1.40176 -12.77536,2.25759 -4.02526,0.60303 -8.06149,1.06589 -12.14187,0.85861 -4.42664,-0.005 -8.85398,-0.0345 -13.280084,0.0471 0,0 4.744944,-3.4474 4.744944,-3.4474 z"
       id="path2987"
       style="fill:#000000;fill-opacity:0;stroke:#1a1a1a" />
    <path
       d="m 81.136715,253.61661 c 4.647781,0.1237 9.297671,0.0665 13.946422,0.0639 4.221931,-0.0152 8.443893,-0.002 12.665823,-0.0162 3.73948,-0.009 7.47896,-9e-4 11.21843,-0.006 3.06674,0.003 6.13345,-0.0169 9.20016,-0.0286 2.93722,0.11243 5.86868,-0.19698 8.74902,-0.75921 2.86236,-0.98613 5.75156,-1.96507 8.52782,-3.18148 2.74195,-1.32777 5.64522,-2.08831 8.57862,-2.85468 2.62815,-0.85192 5.21092,-1.83939 7.8854,-2.53628 2.09896,-0.72129 3.97868,-1.84682 6.14666,-2.39057 2.3901,-0.57809 4.66917,-1.42817 6.9938,-2.22774 2.73528,-1.09956 5.20993,0.0734 7.70768,1.19207 0.38089,0.20257 0.76177,0.40515 1.14266,0.60772 0,0 -4.89632,3.20834 -4.89632,3.20834 l 0,0 c -0.3736,-0.1927 -0.74719,-0.38539 -1.12079,-0.57808 -2.45942,-1.09352 -4.79818,-1.97444 -7.43982,-0.84146 -2.338,0.82339 -4.6688,1.61318 -7.06917,2.23575 -2.10518,0.62609 -3.98433,1.76796 -6.10218,2.35387 -2.65125,0.74143 -5.22756,1.72217 -7.86442,2.51362 -2.92431,0.75946 -5.78196,1.63203 -8.52487,2.92231 -2.81051,1.1678 -5.6875,2.23601 -8.60874,3.08156 -2.92095,0.50767 -5.87945,0.78399 -8.84719,0.69941 -3.04042,-0.0117 -6.08083,-0.0314 -9.12129,-0.0287 -3.73358,-0.006 -7.46718,0.003 -11.20077,-0.006 -4.207107,-0.0139 -8.414239,-8.5e-4 -12.62134,-0.0162 -4.707373,-0.003 -9.415762,-0.058 -14.122227,0.0639 0,0 4.776632,-3.47043 4.776632,-3.47043 z"
       id="path2989"
       style="fill:#000000;fill-opacity:0;stroke:#1a1a1a" />
    <path
       d="m 128.29603,214.72794 c 2.5623,7.00324 4.87245,14.06273 6.67743,21.29968 1.25226,4.54583 2.81018,8.99905 3.61135,13.65406 0.3999,2.86002 0.42133,5.75042 0.41979,8.63222 0.005,2.60468 -0.01,5.20929 -0.0179,7.81392 -0.053,2.45909 -0.72871,4.7001 -1.80703,6.8858 -0.94361,2.1772 -2.09111,4.21857 -3.34347,6.22908 -1.65465,2.37445 -3.54389,4.53774 -5.73161,6.42877 -2.53625,2.13934 -5.26343,4.0288 -7.95184,5.96707 -2.52405,1.79928 -5.17454,3.39689 -7.6755,5.22693 -3.7584,2.71599 -7.92448,4.76795 -12.05401,6.83847 -2.07218,1.08381 -4.325422,1.54813 -6.629279,1.77373 -1.371546,0.0828 -0.687073,0.0505 -2.053405,0.0971 0,0 4.755868,-3.48492 4.755868,-3.48492 l 0,0 c 1.350156,-0.0637 0.67469,-0.0213 2.026385,-0.12759 2.257591,-0.27572 4.442831,-0.8242 6.463781,-1.90623 0.40354,-0.1981 0.80657,-0.39728 1.21064,-0.59431 0.40939,-0.19961 0.82388,-0.38889 1.22973,-0.5956 4.82932,-2.45976 -5.75319,3.69474 -1.45653,0.84316 0.34931,-0.23183 0.70277,-0.45736 1.05416,-0.68604 2.54863,-1.82515 5.17678,-3.51137 7.77738,-5.26549 2.65038,-1.94947 5.38187,-3.79119 7.90808,-5.90557 2.21273,-1.8149 4.08406,-3.91805 5.75871,-6.23893 1.23311,-2.0114 2.47772,-3.98942 3.36692,-6.18768 1.11894,-2.11009 1.81057,-4.23657 1.93437,-6.64168 0.008,-2.60762 0.0252,-5.21506 0.0412,-7.82265 -0.012,-2.85742 7.2e-4,-5.72452 -0.35074,-8.56552 -0.69002,-4.68393 -2.09156,-9.20514 -3.29073,-13.77657 -1.65827,-7.2277 -3.87591,-14.28916 -6.98136,-21.03899 0,0 5.10757,-2.8522 5.10757,-2.8522 z"
       id="path2991"
       style="fill:#000000;fill-opacity:0;stroke:#1a1a1a" />
    <path
       d="m 148.22224,265.73887 c 5.63803,4.20103 10.56446,9.29039 14.9105,14.79759 2.38858,3.17662 4.8145,6.29129 7.39438,9.31187 0.99475,0.94886 2.07047,1.79994 3.09452,2.71615 0,0 -4.97153,3.08209 -4.97153,3.08209 l 0,0 c -1.03328,-0.93857 -2.12546,-1.80675 -3.10752,-2.80089 -2.54811,-3.04862 -4.86907,-6.22885 -7.16049,-9.47871 -4.24543,-5.54065 -9.0998,-10.73876 -15.04241,-14.48719 0,0 4.88255,-3.14091 4.88255,-3.14091 z"
       id="path2993"
       style="fill:#000000;fill-opacity:0;stroke:#1a1a1a" />
    <path
       d="m 221.54792,200.07853 c 3.63534,0.0674 7.2719,0.0502 10.90773,0.0395 2.96635,1.4e-4 5.93267,-0.0178 8.899,-0.0282 3.72301,0.10759 7.33528,-0.86995 10.94431,-1.64734 3.9415,-0.98241 7.919,-1.82772 11.90376,-2.61766 2.76176,-0.79941 5.38323,-1.87956 8.23136,-2.36746 1.8958,-0.2894 3.81533,-0.34932 5.72893,-0.40371 0,0 -4.69628,3.43665 -4.69628,3.43665 l 0,0 c -1.90248,0.0761 -3.81067,0.15285 -5.69015,0.48383 -2.79963,0.56442 -5.40711,1.67622 -8.17941,2.33566 -3.96404,0.77587 -7.91665,1.62071 -11.84002,2.58135 -3.67541,0.78408 -7.35812,1.75425 -11.14804,1.64652 -2.94048,-0.0104 -5.88094,-0.0284 -8.82144,-0.0282 -3.67205,-0.0109 -7.34479,-0.0269 -11.01638,0.0395 0,0 4.77663,-3.47042 4.77663,-3.47042 z"
       id="path2995"
       style="fill:#000000;fill-opacity:0;stroke:#1a1a1a" />
    <path
       d="m 252.32768,210.86157 c 0.70341,5.77694 1.12899,11.58132 1.46728,17.38936 0.25209,5.19133 0.23098,10.38972 0.26718,15.58541 0.007,5.14742 -0.0359,10.29464 -0.007,15.44202 0.0117,3.93079 0.0272,7.86146 0.0606,11.79213 0.0308,2.44651 0.0278,4.89305 0.0254,7.33965 0.002,2.22992 0.008,4.45983 0.011,6.68974 -0.0374,2.66807 0.0563,5.33708 -0.14646,7.99884 -0.37986,2.63806 -0.43664,5.32013 -0.84681,7.95153 -0.0991,0.28871 -0.19826,0.57742 -0.29739,0.86613 0,0 -5.37366,2.47882 -5.37366,2.47882 l 0,0 c 0.12482,-0.25556 0.24964,-0.51113 0.37447,-0.76669 0.55597,-2.59915 0.50219,-5.31005 0.9462,-7.93264 0.21205,-2.63533 0.0817,-5.2795 0.0952,-7.92176 0.003,-2.23363 0.009,-4.46726 0.0109,-6.70089 -0.002,-2.4553 -0.005,-4.91055 0.0257,-7.36576 0.0343,-3.95286 0.0518,-7.90574 0.0693,-11.85871 0.0365,-5.14743 0.008,-10.29485 0.0111,-15.44236 0.0151,-5.19447 -0.0219,-10.39062 -0.21425,-15.58199 -0.24452,-5.75915 -0.56969,-11.54233 -1.63541,-17.21745 0,0 5.15668,-2.74538 5.15668,-2.74538 z"
       id="path2997"
       style="fill:#000000;fill-opacity:0;stroke:#1a1a1a" />
    <path
       d="m 266.88785,247.46575 c 2.58649,2.23036 4.98936,4.606 7.04534,7.33525 2.07169,2.82628 3.33294,6.11468 4.76412,9.28771 0,0 -5.06677,2.85353 -5.06677,2.85353 l 0,0 c -1.36812,-3.15094 -2.5949,-6.41539 -4.65601,-9.19394 -2.06973,-2.69354 -4.44239,-5.09515 -7.11277,-7.20256 0,0 5.02609,-3.07999 5.02609,-3.07999 z"
       id="path2999"
       style="fill:#000000;fill-opacity:0;stroke:#1a1a1a" />
    <path
       d="m 329.74715,190.99291 c 3.32982,0.0602 6.66053,0.0321 9.99066,0.0174 2.74427,0.058 5.43536,-0.61679 8.0545,-1.36991 2.76952,-1.15198 5.64211,-2.00881 8.47139,-2.9889 2.44174,-1.17987 5.04058,-1.91422 7.59787,-2.78221 2.89554,-1.14473 6.02911,-1.4713 9.0727,-2.04445 2.26299,-0.44393 4.5536,-0.69431 6.85242,-0.8459 0,0 -4.72581,3.483 -4.72581,3.483 l 0,0 c -2.26156,0.15995 -4.51471,0.41514 -6.74208,0.84888 -3.06357,0.57315 -6.19127,0.97208 -9.09412,2.16416 -2.53949,0.8562 -5.10161,1.63104 -7.54699,2.74435 -2.8435,0.95371 -5.681,1.91814 -8.49237,2.96445 -2.66228,0.72654 -5.37901,1.37482 -8.16052,1.25073 -3.34606,-0.015 -6.69267,-0.0422 -10.03844,0.0173 0,0 4.76079,-3.45891 4.76079,-3.45891 z"
       id="path3001"
       style="fill:#000000;fill-opacity:0;stroke:#1a1a1a" />
    <path
       d="m 331.01949,194.59389 c 0.27364,4.65683 0.53342,9.31322 0.71571,13.9746 0.12307,3.76979 0.13507,7.54195 0.15991,11.31331 7.1e-4,2.82792 0.0205,5.65579 0.0318,8.48368 0.20693,2.44129 -0.3177,4.73692 -1.14685,7.01347 -1.32412,2.42854 -2.10128,5.06611 -2.82921,7.71817 -0.73743,2.4308 -1.34475,4.89127 -2.37485,7.21928 -2.31808,3.44212 -0.58036,3.41884 2.81397,3.76346 4.90424,0.15268 9.80686,-0.48264 14.63297,-1.30407 3.20427,-0.67067 6.45691,-0.94509 9.72012,-1.09726 2.46708,0.11571 4.75857,-0.77361 7.11218,-1.33132 2.39629,-0.34073 4.75799,-0.81795 7.14284,-1.22654 2.50585,-0.47264 5.05719,-0.81427 7.53423,-1.42592 1.09962,-0.30471 2.21763,-0.52455 3.339,-0.72918 0,0 -4.69447,3.54698 -4.69447,3.54698 l 0,0 c -1.10881,0.21816 -2.21321,0.45387 -3.30828,0.7345 -2.50338,0.53468 -5.03621,0.95029 -7.55472,1.40624 -2.37046,0.44844 -4.75096,0.79852 -7.11802,1.25637 -2.35192,0.61597 -4.68487,1.31956 -7.15197,1.21688 -3.2163,0.15231 -6.41412,0.48232 -9.58174,1.07682 -4.87216,0.75853 -9.81921,1.372 -14.75634,1.19966 -3.24596,-0.40372 -6.16791,-1.04597 -3.48957,-4.64225 1.10905,-2.28977 1.74436,-4.73046 2.48289,-7.15739 0.68472,-2.662 1.3996,-5.34798 2.76691,-7.75574 0.87499,-2.20332 1.42315,-4.4274 1.23099,-6.8179 0.0157,-2.83971 0.0431,-5.67939 0.0408,-8.51917 0.0136,-3.77818 0.007,-7.55671 -0.0808,-11.33411 -0.11511,-4.62942 -0.28475,-9.26722 -0.83563,-13.86838 0,0 5.19816,-2.71419 5.19816,-2.71419 z"
       id="path3003"
       style="fill:#000000;fill-opacity:0;stroke:#1a1a1a" />
    <path
       d="m 339.9439,214.08807 c 4.34191,-0.63427 8.69609,-1.15244 13.02657,-1.86089 2.90725,-0.51245 5.84521,-0.71426 8.73601,-1.3068 2.0494,-0.38874 4.13737,-0.76695 6.22322,-0.54718 0.31309,0.15246 0.67153,0.23471 0.93928,0.45738 1.54096,1.28156 2.42621,4.64477 3.09788,6.49558 0.8209,2.37141 1.29164,4.83914 1.22416,7.34879 -0.1441,0.34673 -0.21981,0.73061 -0.43228,1.04019 -0.22518,0.32809 -0.51511,0.62566 -0.85409,0.83409 -4.57928,2.8156 -5.5058,3.66248 -9.82573,4.1698 -2.33599,0.0818 -4.60253,0.13141 -6.8278,0.89696 -2.93739,1.00842 -5.9688,1.7581 -8.99256,2.46965 -2.44708,0.21301 -4.6672,1.1303 -6.96536,1.90089 -0.35374,0.0463 -0.70748,0.0925 -1.06122,0.1388 0,0 4.70808,-3.54238 4.70808,-3.54238 l 0,0 c 0.33176,-0.0694 0.66353,-0.13884 0.9953,-0.20826 2.28061,-0.79252 4.5419,-1.52782 6.95382,-1.82118 3.02259,-0.72398 6.05034,-1.47638 8.98193,-2.51446 2.26836,-0.65288 4.56142,-0.68298 6.90521,-0.8276 0.9431,-0.13755 1.48607,-0.1847 2.40863,-0.44963 0.3998,-0.11481 1.51517,-0.65492 1.17829,-0.41092 -1.23691,0.89589 -2.59849,1.60584 -3.90958,2.38917 -0.31872,0.19043 0.66379,-0.35323 0.93187,-0.61009 0.23643,-0.22653 0.36836,-0.54144 0.55253,-0.81216 0.18632,-2.43368 -0.33903,-4.85557 -1.06421,-7.1718 -0.56784,-1.60409 -1.48072,-5.03892 -2.91961,-6.04114 -0.23929,-0.16667 -0.54781,-0.20011 -0.82172,-0.30017 -2.05711,-0.0844 -4.09543,0.26362 -6.10953,0.65936 -2.85657,0.53779 -5.763,0.69031 -8.62641,1.19808 -4.38218,0.68109 -8.78824,1.18297 -13.16225,1.91986 0,0 4.70957,-3.49394 4.70957,-3.49394 z"
       id="path3005"
       style="fill:#000000;fill-opacity:0;stroke:#1a1a1a" />
    <path
       d="m 349.11268,198.4097 c -0.20375,3.24608 0.0326,6.46772 0.39998,9.69009 0.085,0.55583 0.17006,1.11165 0.2551,1.66747 0,0 -5.11226,2.70927 -5.11226,2.70927 l 0,0 c -0.0962,-0.56127 -0.19241,-1.12254 -0.28861,-1.68381 -0.33872,-3.2309 -0.57931,-6.45021 -0.51493,-9.70255 0,0 5.26072,-2.68047 5.26072,-2.68047 z"
       id="path3007"
       style="fill:#000000;fill-opacity:0;stroke:#1a1a1a" />
    <path
       d="m 356.2733,238.03045 c 0.0726,2.04653 0.26751,4.07387 0.54496,6.10102 0,0 -5.07113,2.67005 -5.07113,2.67005 l 0,0 c -0.26772,-2.01635 -0.44222,-4.03616 -0.67199,-6.05688 0,0 5.19816,-2.71419 5.19816,-2.71419 z"
       id="path3009"
       style="fill:#000000;fill-opacity:0;stroke:#1a1a1a" />
    <path
       d="m 399.31252,182.7559 c 3.42099,-0.6685 6.76609,-1.60846 10.20862,-2.17825 3.49987,-0.58866 6.74912,-2.06785 10.12555,-3.07745 0.94081,0.0906 1.57223,0.0128 2.36788,0.62199 1.74904,1.33923 2.13843,4.3032 2.62604,6.27297 0.92221,3.49744 1.63326,7.03229 2.0029,10.6296 0.22393,2.89839 0.22865,5.80738 0.24687,8.71259 0.01,2.22241 0.006,4.44485 0.004,6.66727 -0.17839,1.89672 -1.01741,3.70421 -1.90873,5.36999 -1.01978,2.24675 -2.21862,4.38784 -3.9109,6.19386 -4.38685,3.49031 -6.7473,5.45647 -10.87121,2.41377 -2.0155,-2.00503 -3.32486,-4.59383 -4.70595,-7.0525 -0.87866,-1.90378 -1.66704,-3.84132 -2.54973,-5.74538 0,0 5.11049,-2.88785 5.11049,-2.88785 l 0,0 c 0.86611,1.89793 1.66071,3.81635 2.48551,5.73034 1.32099,2.39588 2.61689,4.8983 4.62151,6.7988 0.80874,0.54994 1.65765,1.14237 2.68517,1.16455 0.31859,0.007 1.20087,-0.31504 0.94833,-0.1207 -0.97828,0.75286 -6.2277,3.85135 -3.153,1.94246 1.81112,-1.63799 3.01602,-3.79632 3.96127,-6.03197 0.9089,-1.57549 1.67714,-3.31869 2.03536,-5.10079 0.007,-2.22874 0.0218,-4.45744 0.0372,-6.68614 0.0112,-2.89388 0.017,-5.7914 -0.19133,-8.67957 -0.31553,-3.58078 -0.94138,-7.11917 -1.89466,-10.58838 -0.40598,-1.59237 -0.95601,-4.74838 -2.46552,-5.73312 -0.72035,-0.46993 -1.27712,-0.34077 -2.08273,-0.33461 -3.35348,1.05897 -6.63182,2.42389 -10.12458,2.98315 -3.47954,0.61556 -6.86994,1.58737 -10.34058,2.2442 0,0 4.73213,-3.52883 4.73213,-3.52883 z"
       id="path3019"
       style="fill:#000000;fill-opacity:0;stroke:#1a1a1a" />
    <path
       d="m 396.58985,191.33863 c -0.1216,3.93938 -0.0878,7.88234 -0.0667,11.82312 0.0182,3.57145 -0.005,7.14276 0.0151,10.71422 0.0173,3.06544 0.008,6.13086 0.0122,9.1963 0.0269,2.79497 5.9e-4,5.58978 0.006,8.38476 -0.0244,2.58944 -0.18924,5.13876 0.82861,7.56649 1.30107,2.19476 3.08891,4.04479 4.76436,5.95364 1.92222,1.95517 4.26343,3.46064 6.61843,4.84215 1.36381,0.89614 2.9592,1.08463 4.48025,1.51467 0.81906,0.23156 1.60136,0.57756 2.40202,0.8664 2.47883,0.91678 5.11027,1.18298 7.72774,1.34572 2.68332,0.12022 5.37029,0.10592 8.05564,0.11319 2.79254,-0.15809 5.7972,0.59597 8.32269,-0.83621 -1.43689,0.74028 -2.79051,1.67147 -4.31066,2.22084 -0.31725,0.11465 0.3888,-0.55463 0.53769,-0.85732 0.15378,-0.31266 0.26631,-0.64529 0.36565,-0.97927 0.34277,-1.15238 0.29492,-2.12205 0.0871,-3.28689 -0.62894,-2.27903 -1.37478,-4.56004 -2.9477,-6.36151 -0.22481,-0.25056 -0.44962,-0.50112 -0.67443,-0.75168 0,0 5.04647,-3.04973 5.04647,-3.04973 l 0,0 c 0.22315,0.25652 0.44631,0.51305 0.66946,0.76957 1.57439,1.91784 2.41815,4.25972 3.08881,6.62894 0.32528,1.62239 0.34043,3.05083 -0.26067,4.62189 -0.13144,0.34352 -0.18052,0.77422 -0.4734,0.99673 -1.81407,1.37817 -3.82272,2.47945 -5.73408,3.71918 -2.6726,1.05545 -5.61232,0.40907 -8.42233,0.58455 -2.7001,0.0106 -5.40315,0.0327 -8.09969,-0.13062 -2.65739,-0.19577 -5.31868,-0.51823 -7.82806,-1.47107 -2.32161,-0.8144 -4.78712,-1.21906 -6.9304,-2.48632 -2.38573,-1.44404 -4.78974,-2.94305 -6.69918,-5.00385 -1.73625,-1.94532 -3.60484,-3.81478 -4.90495,-6.09549 -1.03407,-2.51193 -1.00092,-5.10496 -0.9032,-7.78763 0.005,-2.79701 -0.0209,-5.59384 0.006,-8.39083 0.004,-3.06959 -0.005,-6.13915 0.0122,-9.20874 0.0198,-3.57657 -0.003,-7.153 0.0151,-10.72958 0.0209,-3.9181 0.056,-7.8385 -0.0667,-11.75515 0,0 5.26072,-2.68047 5.26072,-2.68047 z"
       id="path3021"
       style="fill:#000000;fill-opacity:0;stroke:#1a1a1a" />
    <path
       d="m 322.52777,277.29906 c -1.44811,3.35086 -2.83434,6.73862 -4.48589,9.99604 -2.12105,4.07781 -3.38689,4.01896 -8.1046,6.82171 0,0 4.60084,-3.72179 4.60084,-3.72179 l 0,0 c -7.58726,4.57222 -3.21539,2.36746 -1.79711,-0.71621 1.7439,-3.16463 3.12407,-6.53524 4.44294,-9.8942 0,0 5.34382,-2.48555 5.34382,-2.48555 z"
       id="path3023"
       style="fill:#000000;fill-opacity:0;stroke:#1a1a1a" />
    <path
       d="m 344.67844,288.1569 c 1.47031,2.18268 2.71011,4.49971 4.14353,6.70493 0,0 -4.93783,2.88661 -4.93783,2.88661 l 0,0 c -1.43267,-2.1913 -2.6557,-4.51508 -4.24948,-6.59832 0,0 5.04378,-2.99322 5.04378,-2.99322 z"
       id="path3025"
       style="fill:#000000;fill-opacity:0;stroke:#1a1a1a" />
    <path
       d="m 370.13693,284.95662 c 3.43597,3.65229 6.50462,7.60196 9.52165,11.59713 0,0 -4.89366,2.89916 -4.89366,2.89916 l 0,0 c -2.91195,-4.03503 -5.94369,-7.99901 -9.5978,-11.40509 0,0 4.96981,-3.0912 4.96981,-3.0912 z"
       id="path3027"
       style="fill:#000000;fill-opacity:0;stroke:#1a1a1a" />
    <path
       d="m 398.2901,283.52096 c 3.22421,2.72983 6.23742,5.66387 8.89285,8.94819 0.35457,0.50046 0.70913,1.00092 1.0637,1.50138 0,0 -4.96907,2.92499 -4.96907,2.92499 l 0,0 c -0.33813,-0.49517 -0.67625,-0.99034 -1.01438,-1.48551 -2.58775,-3.26124 -5.52,-6.24812 -8.92236,-8.67182 0,0 4.94926,-3.21723 4.94926,-3.21723 z"
       id="path3029"
       style="fill:#000000;fill-opacity:0;stroke:#1a1a1a" />
    <path
       d="m 505.60891,180.75304 c 6.23552,-0.99285 12.50472,-1.7374 18.78778,-2.35048 4.72071,-0.52506 9.4723,-0.46327 14.21361,-0.47855 3.58905,-0.0219 7.17814,-0.0302 10.76722,-0.0447 0,0 -4.68024,3.39893 -4.68024,3.39893 l 0,0 c -3.5424,-0.0292 -7.08491,-0.0537 -10.62746,-0.0517 -4.72891,0.0346 -9.46122,0.10794 -14.1759,0.51126 -6.36596,0.55373 -12.71555,1.30123 -18.99457,2.5092 0,0 4.70956,-3.49394 4.70956,-3.49394 z"
       id="path3031"
       style="fill:#000000;fill-opacity:0;stroke:#1a1a1a" />
    <path
       d="m 501.61954,186.6637 c -0.2791,9.13347 -0.28499,18.26991 -0.56101,27.40429 -0.26434,7.97257 -0.45411,15.94729 -0.52018,23.92399 -0.009,4.80427 -0.053,9.61053 0.0349,14.41434 0.0689,0.53275 0.0286,1.36546 0.52409,1.78757 1.1987,1.0211 5.1505,0.47331 6.53151,0.40277 5.55199,-0.64122 11.09308,-1.29755 16.67447,-1.61262 4.01004,-0.40753 8.29246,-0.41441 12.13901,-1.80267 0.73413,-0.26496 1.39146,-0.7074 2.08719,-1.0611 0,0 -4.44731,3.54184 -4.44731,3.54184 l 0,0 c -0.70043,0.3074 -1.37276,0.6891 -2.10129,0.9222 -3.9133,1.25213 -8.1485,1.28655 -12.19089,1.71993 -5.59881,0.34927 -11.16394,0.999 -16.73439,1.65099 -1.93332,0.0995 -5.52525,0.84102 -7.09489,-0.81789 -0.57664,-0.60943 -0.47863,-1.34864 -0.53795,-2.10691 0.0895,-4.84367 0.0652,-9.68937 0.17993,-14.53289 0.17221,-8.02748 0.4372,-16.05173 0.79419,-24.07327 0.31038,-9.0335 0.41824,-18.0731 0.0142,-27.10677 0,0 5.20837,-2.6538 5.20837,-2.6538 z"
       id="path3033"
       style="fill:#000000;fill-opacity:0;stroke:#1a1a1a" />
    <path
       d="m 507.42109,207.14959 c 4.48522,0.0888 8.9721,0.0753 13.45805,0.0718 3.46361,-0.0111 6.92712,-0.0406 10.3907,-0.0579 0.72785,-0.003 1.62734,-0.10481 2.30594,0.28713 2.42883,1.40285 2.39904,7.14508 2.63404,9.47081 0.45604,5.52422 0.55554,11.06718 0.81173,16.6017 -0.19515,3.03981 -1.89688,2.67953 -5.99698,4.35345 -0.26196,0.10696 -2.84181,-1.13447 -3.17821,-1.2821 -3.17589,-1.31816 -6.62349,-1.47589 -10.01118,-1.6581 -3.02936,-0.15567 -6.05838,0.0912 -9.03367,-0.57204 0,0 4.79357,-3.32966 4.79357,-3.32966 l 0,0 c 2.92663,0.60728 5.91556,0.38832 8.88726,0.56417 3.47113,0.19483 6.99473,0.36438 10.23841,1.74749 0.47742,0.2001 1.68729,0.73153 2.21999,0.86459 0.28265,0.0706 1.09457,-0.0806 0.86795,0.10248 -1.39898,1.13008 -3.0466,1.91189 -4.56148,2.8811 -0.12469,0.0798 0.31768,-0.0831 0.39006,-0.21225 0.134,-0.23901 0.11917,-0.53489 0.17875,-0.80234 0.17463,-5.57244 -0.003,-11.15864 -0.46634,-16.71348 -0.23437,-1.90292 -0.39823,-7.65139 -2.60383,-8.66424 -0.55941,-0.2569 -1.64378,-0.19393 -2.21422,-0.1962 -3.41049,-0.0173 -6.8209,-0.0469 -10.23142,-0.0579 -4.55187,-0.004 -9.10458,-0.0155 -13.65575,0.0718 0,0 4.77663,-3.47043 4.77663,-3.47043 z"
       id="path3035"
       style="fill:#000000;fill-opacity:0;stroke:#1a1a1a" />
    <path
       d="m 516.798,184.26756 c -0.1275,4.3971 -0.10938,8.79747 -0.0988,13.19607 0,0 -5.0631,2.57977 -5.0631,2.57977 l 0,0 c 0.0105,-4.36501 0.0299,-8.7319 -0.0988,-13.09537 0,0 5.26071,-2.68047 5.26071,-2.68047 z"
       id="path3037"
       style="fill:#000000;fill-opacity:0;stroke:#1a1a1a" />
    <path
       d="m 518.00937,236.86479 c 0.58204,2.5416 1.21665,5.06951 1.77504,7.61663 0,0 -5.06814,2.71763 -5.06814,2.71763 l 0,0 c -0.52425,-2.54192 -1.09894,-5.07494 -1.88672,-7.55071 0,0 5.17982,-2.78355 5.17982,-2.78355 z"
       id="path3039"
       style="fill:#000000;fill-opacity:0;stroke:#1a1a1a" />
    <path
       d="m 567.24591,186.95805 c 4.90224,0.25148 9.78476,0.005 14.66569,-0.43591 2.98394,0.0357 7.65552,-1.04452 10.42975,-0.0737 0.58213,0.20372 1.07722,0.6009 1.61583,0.90135 2.85068,2.37416 3.2775,6.10349 3.57418,9.58171 0.15758,3.03161 0.13306,6.06849 0.1134,9.10293 0.13491,2.50752 -0.21572,4.9694 -0.52018,7.44884 -0.58705,3.62725 -1.042,7.27578 -1.91604,10.8484 -1.4462,3.5878 -3.08596,3.92566 -7.38959,6.03134 -0.36354,0.17787 -0.82165,0.10175 -1.21416,0.003 -1.05443,-0.26504 -1.68407,-1.00209 -2.46221,-1.68623 -2.59391,-2.35222 -4.82568,-5.028 -7.01821,-7.7426 -0.98074,-1.20255 -1.79299,-2.52181 -2.69475,-3.7817 0,0 5.0334,-2.96356 5.0334,-2.96356 l 0,0 c 0.86155,1.26823 1.64237,2.59022 2.60883,3.78458 2.17589,2.68527 4.39932,5.32273 6.99834,7.62085 0.74309,0.57969 1.26439,1.18837 2.25902,1.27605 0.36037,0.0318 1.35319,-0.41047 1.06918,-0.18639 -7.11183,5.6112 -3.31149,2.13662 -2.41271,0.14212 0.95441,-3.53234 1.38824,-7.1576 1.94165,-10.76829 0.23211,-2.45779 0.59885,-4.89482 0.49341,-7.37284 0.055,-3.02928 0.13989,-6.06226 -0.0191,-9.0899 -0.25698,-3.28166 -0.55311,-6.85925 -3.2784,-9.08733 -0.49542,-0.25348 -0.95483,-0.59527 -1.48625,-0.76046 -2.81956,-0.87642 -7.33588,0.21716 -10.33069,0.17605 -4.93144,0.36974 -9.86068,0.46818 -14.80538,0.47899 0,0 4.74495,-3.44741 4.74495,-3.44741 z"
       id="path3041"
       style="fill:#000000;fill-opacity:0;stroke:#1a1a1a" />
    <path
       d="m 569.21052,194.5237 c -0.91188,5.25215 -1.56199,10.55087 -2.19025,15.8442 -0.51673,4.20285 -0.46986,8.44409 -1.00887,12.64184 -0.40633,2.49127 -0.58039,5.00685 -0.68859,7.52567 -0.087,2.94881 -0.0972,5.89895 -0.0863,8.84877 0.0152,2.44677 0.0313,4.89353 0.0396,7.34034 -0.0691,2.26625 0.14553,3.46962 2.33036,4.34586 2.5891,0.6238 5.14733,1.3634 7.76928,1.83642 4.63086,0.63094 9.31591,0.69906 13.9822,0.75715 3.60219,0.0291 7.20437,-0.004 10.80658,-0.006 1.58356,-0.0132 3.27338,0.0662 4.80049,-0.46096 0.44651,-0.15413 1.6758,-0.87204 1.26431,-0.64008 -4.42847,2.49636 -4.78998,3.12692 -2.8805,1.03141 1.52966,-2.5488 2.12691,-5.54082 1.58046,-8.46173 0,0 5.18805,-2.76408 5.18805,-2.76408 l 0,0 c 0.55914,3.05596 -0.0254,6.17299 -1.41285,8.94413 -3.11646,4.24425 -8.25068,5.90521 -13.23169,5.7611 -3.57156,0.008 -7.1433,-0.009 -10.71435,-0.0733 -4.71102,-0.0937 -9.4387,-0.16001 -14.11722,-0.77382 -2.68057,-0.47305 -5.32691,-1.15827 -7.94956,-1.88308 -2.26795,-1.08878 -2.7589,-2.46878 -2.66052,-4.94003 0.005,-2.458 0.0146,-4.91599 0.0258,-7.37398 0.009,-2.94925 -0.0253,-5.89904 0.0372,-8.84778 0.0759,-2.54297 0.26104,-5.08673 0.6944,-7.59639 0.65032,-4.21934 0.72637,-8.49086 1.2203,-12.73056 0.59723,-5.24291 1.34849,-10.46695 1.93017,-15.71209 0,0 5.27154,-2.61291 5.27154,-2.61291 z"
       id="path3043"
       style="fill:#000000;fill-opacity:0;stroke:#1a1a1a" />
    <path
       d="m 501.5408,274.20422 c -0.71335,4.1299 -2.02141,8.13194 -3.32522,12.10609 0,0 -5.10913,2.39967 -5.10913,2.39967 l 0,0 c 1.31039,-3.87959 2.70045,-7.79879 3.1418,-11.89145 0,0 5.29255,-2.61431 5.29255,-2.61431 z"
       id="path3045"
       style="fill:#000000;fill-opacity:0;stroke:#1a1a1a" />
    <path
       d="m 527.41048,275.91315 c 1.44626,2.21967 2.75261,4.52291 4.18519,6.75048 0,0 -4.95915,2.89022 -4.95915,2.89022 l 0,0 c -1.39586,-2.23943 -2.67609,-4.55661 -4.30034,-6.6453 0,0 5.0743,-2.9954 5.0743,-2.9954 z"
       id="path3047"
       style="fill:#000000;fill-opacity:0;stroke:#1a1a1a" />
    <path
       d="m 562.26283,277.58395 c 3.84012,2.29482 7.79252,4.43638 11.39204,7.10404 0,0 -4.86155,3.07383 -4.86155,3.07383 l 0,0 c -3.54296,-2.70751 -7.45576,-4.92365 -11.4108,-6.96679 0,0 4.88031,-3.21108 4.88031,-3.21108 z"
       id="path3049"
       style="fill:#000000;fill-opacity:0;stroke:#1a1a1a" />
    <path
       d="m 594.18286,278.92436 c 2.48655,2.95185 4.82495,6.0244 7.09655,9.14335 0,0 -4.87846,2.8851 -4.87846,2.8851 l 0,0 c -2.26026,-3.11881 -4.55506,-6.23619 -7.25536,-8.99455 0,0 5.03727,-3.0339 5.03727,-3.0339 z"
       id="path3051"
       style="fill:#000000;fill-opacity:0;stroke:#1a1a1a" />
    <path
       d="m 93.647511,344.8495 c 0.328932,3.6662 0.566173,7.33789 0.728068,11.01499 0.115545,2.67092 0.157251,5.34406 0.174813,8.01716 0.0087,2.04841 0.0051,4.09684 0.0035,6.14526 -0.285408,2.16835 -0.587724,4.34082 -0.950992,6.49844 -0.194074,2.29386 -1.339135,4.37472 -1.713648,6.61614 0.03533,0.20452 -6.9e-5,0.43516 0.105986,0.61356 0.629296,1.0586 3.378345,-0.88414 3.901845,-1.18031 -1.258604,0.70728 -2.504136,1.43834 -3.775811,2.12184 -0.421834,0.22672 0.809999,-0.51167 1.224931,-0.7508 2.059719,-1.18701 4.134357,-2.34796 6.198473,-3.52732 1.317124,-0.75255 -2.634667,1.50443 -3.957488,2.24691 -0.640244,0.35937 1.263374,-0.74844 1.891227,-1.12904 0,0 5.486675,-2.12399 5.486675,-2.12399 l 0,0 c -2.5963,1.6236 -5.345551,3.17349 -7.969821,4.66658 -1.273942,0.72482 2.521044,-1.49587 3.787156,-2.23428 0.413365,-0.24108 -0.819209,0.49482 -1.228814,0.74223 -2.07024,1.21922 -4.14048,2.43844 -6.21072,3.65766 -1.539149,0.81054 -4.318484,2.20241 -4.762093,-0.49092 0.267922,-2.28044 1.573892,-4.34396 1.768373,-6.65974 0.350251,-2.12384 0.555546,-4.27089 0.949166,-6.38973 0.0022,-2.05043 0.0062,-4.10086 0.01248,-6.15129 0.0055,-2.68314 0.0086,-5.36674 -0.0659,-8.04912 -0.121433,-3.64485 -0.296821,-7.29669 -0.823276,-10.90912 0,0 5.2259,-2.74511 5.2259,-2.74511 z"
       id="path3053"
       style="fill:#000000;fill-opacity:0;stroke:#1a1a1a" />
    <path
       d="m 98.309309,357.66232 c 2.806461,0.057 5.613691,0.0422 8.420521,0.0322 0,0 -4.68789,3.40595 -4.68789,3.40595 l 0,0 c -2.836416,-0.0102 -5.673194,-0.0238 -8.509264,0.0322 0,0 4.776633,-3.47043 4.776633,-3.47043 z"
       id="path3055"
       style="fill:#000000;fill-opacity:0;stroke:#1a1a1a" />
    <path
       d="m 126.27932,344.76592 c 1.67088,4.24777 2.45534,8.75699 3.07113,13.25795 0.44873,3.19439 0.51754,6.41575 0.54779,9.63492 0.0306,2.7397 0.003,5.47931 -0.0208,8.2189 -0.15268,3.19988 0.27569,4.9181 2.39525,7.28627 2.10105,2.40563 4.96392,3.12525 7.9978,3.53701 5.87703,0.47686 11.78338,0.41322 17.67518,0.39686 4.21796,0.27308 8.28298,-0.27004 12.36739,-1.22724 1.88638,-0.42018 3.92757,-0.57667 5.7066,-1.39165 0.33962,-0.15558 1.30208,-0.73139 0.96665,-0.56699 -1.47483,0.7228 -2.92467,1.49553 -4.387,2.24329 0.84437,-2.26037 -0.38114,-4.77057 -1.35571,-6.81444 -0.75911,-1.54285 -1.98366,-2.71181 -3.27321,-3.8084 0,0 4.95484,-3.08753 4.95484,-3.08753 l 0,0 c 1.34064,1.16704 2.62815,2.3782 3.41403,4.00735 1.07585,2.2596 2.19782,4.85656 1.69126,7.39154 -5.69145,3.79348 -6.24989,4.59475 -12.35065,5.55339 -4.04398,0.88429 -8.08955,1.22955 -12.23758,0.97242 -5.95703,-0.0193 -11.92688,0.0641 -17.87233,-0.35092 -3.18028,-0.44521 -6.1024,-1.32522 -8.29579,-3.83022 -2.21518,-2.4851 -2.73394,-4.32005 -2.57551,-7.67359 -0.0103,-2.73679 -0.006,-5.47333 0.0152,-8.21007 -0.0132,-3.21193 -0.0744,-6.42848 -0.41505,-9.62525 -0.53074,-4.43342 -1.22908,-8.91971 -3.13425,-13.00133 0,0 5.11476,-2.91227 5.11476,-2.91227 z"
       id="path3057"
       style="fill:#000000;fill-opacity:0;stroke:#1a1a1a" />
    <path
       d="m 154.44339,356.68653 c 1.23949,-0.70582 4.96397,-2.81259 3.71846,-2.11745 -2.78748,1.55574 -5.54346,3.16775 -8.33844,4.71 -1.65868,0.91526 -3.36646,1.71668 -5.02317,2.63461 -1.6854,0.88591 -0.85516,0.48324 -2.48608,1.21748 0,0 4.58249,-3.64172 4.58249,-3.64172 l 0,0 c 1.57556,-0.74354 0.77001,-0.34316 2.4133,-1.20784 1.65235,-0.87681 3.32906,-1.6963 4.96687,-2.60113 0.61003,-0.33702 2.41019,-1.39911 1.82342,-1.02305 -1.09659,0.7028 -12.60228,7.43051 2.93232,-1.68375 0,0 -4.58917,3.71285 -4.58917,3.71285 z"
       id="path3059"
       style="fill:#000000;fill-opacity:0;stroke:#1a1a1a" />
    <path
       d="m 113.76293,399.463 c -8.02419,5.05672 -16.378685,9.53752 -24.919511,13.65096 -1.266789,0.57778 -5.313613,2.41546 -6.708694,3.08059 -0.790172,0.37673 -3.159706,1.50628 -2.3535,1.16521 6.464718,-2.73493 3.334853,-2.40017 2.788085,-0.62766 -0.09715,0.31494 0.03844,0.65806 0.05765,0.98709 1.406974,3.31393 3.411234,6.32506 5.150553,9.46501 1.264284,2.98689 3.01486,5.70632 4.616509,8.51161 1.247516,1.9164 2.309149,3.89791 3.777312,5.65832 0.262239,0.3315 0.524479,0.663 0.786718,0.9945 0,0 -5.027517,3.00442 -5.027517,3.00442 l 0,0 c -0.261744,-0.32433 -0.523487,-0.64866 -0.785231,-0.973 -1.539204,-1.7616 -2.552871,-3.80585 -3.79109,-5.77985 -1.585543,-2.81818 -3.352722,-5.53403 -4.553738,-8.55564 -1.763026,-3.21423 -3.818331,-6.2772 -5.373698,-9.60097 -0.06942,-0.44865 -0.291544,-0.89966 -0.208267,-1.34594 0.427224,-2.28949 6.921899,-5.22714 6.975227,-5.2591 2.766845,-1.6584 6.01156,-2.48486 8.823498,-4.05316 2.735628,-1.31785 5.401565,-2.78215 8.172054,-4.02502 0.25643,-0.11503 -0.90875,0.65628 -0.66126,0.5231 2.66518,-1.43411 5.20271,-3.11927 7.78792,-4.68922 0,0 5.44697,-2.13125 5.44697,-2.13125 z"
       id="path3061"
       style="fill:#000000;fill-opacity:0;stroke:#1a1a1a" />
    <path
       d="m 96.478792,413.95539 c 7.674848,-1.23524 15.177128,-3.27789 22.732298,-5.07126 4.94316,-1.24745 9.83978,-2.7132 14.88701,-3.48543 3.43577,0.10928 4.28313,2.10294 5.42475,4.93739 1.10026,2.72547 1.24239,5.66596 1.39072,8.5641 0.0754,3.32909 0.0894,6.65947 0.0834,9.98933 0.13221,2.82707 -0.0743,5.61211 -0.44308,8.4097 -0.86608,4.61372 -1.76791,9.19794 -3.02774,13.72232 -1.49107,4.67117 -2.64938,9.4467 -4.25825,14.07926 -1.37915,4.50235 -3.75915,9.94165 -9.86904,9.19199 -2.51323,-0.45981 -3.97659,-2.21663 -5.44328,-4.12832 -1.78726,-1.6605 -3.12264,-3.64165 -4.51583,-5.61698 -1.19978,-1.91604 -0.59622,-0.95294 -1.81071,-2.88927 0,0 4.99581,-2.91046 4.99581,-2.91046 l 0,0 c 1.21671,1.9181 0.60903,0.97234 1.82236,2.83769 1.44536,1.92596 2.79883,3.89853 4.55365,5.57423 1.3979,1.78676 2.75503,3.43249 5.17411,3.69555 2.32351,-0.10454 2.46998,-0.28221 -2.93103,2.51538 -0.36621,0.18969 0.58083,-0.59282 0.8077,-0.93724 0.97932,-1.48675 1.3983,-3.27071 2.02642,-4.90987 1.71287,-4.6134 2.86519,-9.41208 4.37964,-14.0924 1.27058,-4.45778 2.08832,-8.97905 2.8594,-13.54626 0.33904,-2.78485 0.67397,-5.5428 0.50443,-8.35962 0.008,-3.32077 0.0555,-6.64314 -0.0723,-9.96242 -0.12709,-2.83352 -0.28646,-5.70244 -1.32737,-8.37602 -1.06728,-2.63584 -1.74725,-4.38048 -4.97864,-4.29769 -4.90333,0.74026 -9.68229,2.07833 -14.4955,3.24593 -7.711,1.8055 -15.368042,3.82933 -23.14189,5.35842 0,0 4.672882,-3.53805 4.672882,-3.53805 z"
       id="path3063"
       style="fill:#000000;fill-opacity:0;stroke:#1a1a1a" />
    <path
       d="m 104.48313,433.42952 c 5.77348,0.1459 11.48225,-1.08336 17.17941,-1.88355 3.45609,-0.44989 1.83012,-0.23315 4.87836,-0.64688 0,0 -4.58504,3.41844 -4.58504,3.41844 l 0,0 c -2.95007,0.32983 -1.36848,0.14638 -4.74405,0.55649 -5.8119,0.79124 -11.608,1.97882 -17.489465,2.01441 0,0 4.760785,-3.45891 4.760785,-3.45891 z"
       id="path3065"
       style="fill:#000000;fill-opacity:0;stroke:#1a1a1a" />
    <path
       d="m 112.45144,451.60651 c 3.86645,0.12252 7.73544,0.11045 11.60331,0.11781 0,0 -4.45234,3.23481 -4.45234,3.23481 l 0,0 c -3.97599,0.008 -7.95292,-0.001 -11.9276,0.11781 0,0 4.77663,-3.47043 4.77663,-3.47043 z"
       id="path3067"
       style="fill:#000000;fill-opacity:0;stroke:#1a1a1a" />
    <path
       d="m 210.43624,389.9872 c 6.55466,0.32265 13.07505,0.0246 19.57273,-0.85364 11.43932,-1.82121 22.65636,-4.62525 33.75398,-7.90299 6.49506,-1.57729 12.54447,-4.47158 18.90403,-6.44488 1.26246,-0.14735 3.2941,-1.42672 4.58826,-1.1862 1.75928,0.32698 2.08488,2.63371 2.435,3.95497 0.81073,6.14735 0.81401,12.40292 0.61723,18.59369 -0.33153,6.43138 -1.98298,12.67416 -3.81691,18.81414 -2.15561,7.35016 -4.70043,14.57358 -7.12079,21.83819 -2.17574,5.5597 -4.09719,11.25775 -6.57324,16.69557 -2.0007,2.76404 -1.82043,2.91841 -7.28412,4.44606 -0.71972,0.20124 -1.42659,-0.47314 -2.08125,-0.8336 -3.5558,-1.95787 -6.62943,-4.73594 -9.64104,-7.40675 -7.63263,-7.13865 -14.33881,-15.21561 -20.53419,-23.61315 -2.99768,-4.44453 -1.5858,-2.29815 -4.24747,-6.43132 0,0 4.74678,-2.76174 4.74678,-2.76174 l 0,0 c 2.5215,4.18938 1.17877,2.01765 4.04266,6.50622 6.07416,8.44833 12.75713,16.51449 20.50696,23.48986 2.93356,2.50011 3.65085,3.29944 6.83013,5.31618 0.97509,0.61854 1.96569,1.22737 3.02269,1.69227 0.63002,0.2771 2.31399,-0.0956 1.99916,0.51648 -0.67876,1.31956 -2.31351,1.88182 -3.60693,2.60915 -0.44621,0.25092 0.67709,-0.76799 1.01563,-1.15198 1.07322,-2.1403 1.89436,-4.33642 2.81078,-6.54683 1.40991,-3.40072 3.00307,-6.73002 4.13299,-10.24244 2.37579,-7.23172 4.8703,-14.42367 6.95882,-21.74665 1.87506,-6.09377 3.50682,-12.31058 3.91202,-18.70012 0.22116,-6.10689 0.21448,-12.28808 -0.73858,-18.33655 -0.25179,-0.86773 -0.43456,-2.12763 -1.18477,-2.8127 -1.14819,-1.04849 -4.07453,0.59552 -5.3359,0.81377 -6.17117,1.91276 -12.10465,4.55989 -18.41307,6.05461 -11.18939,3.23906 -22.48961,6.05623 -33.98801,7.98098 -6.66341,0.88181 -13.34058,1.15195 -20.06021,1.11983 0,0 4.77663,-3.47043 4.77663,-3.47043 z"
       id="path3069"
       style="fill:#000000;fill-opacity:0;stroke:#1a1a1a" />
    <path
       d="m 252.11186,353.33887 c -0.0576,5.57748 0.004,10.89485 -0.80388,16.43679 -1.5368,6.70459 -3.97316,13.09763 -7.06244,19.22692 -2.69434,5.08983 -5.46378,10.15445 -9.08211,14.65092 -5.53239,5.87309 -11.49269,11.30405 -17.63057,16.53233 -4.84297,4.29321 -10.03699,8.14833 -15.14119,12.11655 -2.80534,2.17748 -1.43108,1.10123 -4.12371,3.22758 0,0 -5.24401,2.1002 -5.24401,2.1002 l 0,0 c 2.71824,-2.14063 1.33453,-1.05924 4.15187,-3.24322 5.16527,-4.01064 10.45624,-7.86174 15.37272,-12.18442 6.09879,-5.14461 11.97871,-10.52239 17.44196,-16.34539 3.69409,-4.44816 6.48027,-9.51138 9.22436,-14.5838 3.13421,-6.05117 5.56337,-12.39303 7.10035,-19.04624 0.82348,-5.38877 0.81253,-10.79302 0.58828,-16.23442 0,0 5.20837,-2.6538 5.20837,-2.6538 z"
       id="path3071"
       style="fill:#000000;fill-opacity:0;stroke:#1a1a1a" />
    <path
       d="m 258.10029,414.97059 c 3.62943,2.45621 7.28787,4.82631 11.15339,6.89239 0.2963,0.19981 0.5926,0.39962 0.88891,0.59943 0,0 -4.97717,3.15968 -4.97717,3.15968 l 0,0 c -0.2551,-0.19951 -0.5102,-0.39902 -0.7653,-0.59853 -3.77953,-2.22331 -7.41682,-4.65265 -11.20856,-6.85367 0,0 4.90873,-3.1993 4.90873,-3.1993 z"
       id="path3073"
       style="fill:#000000;fill-opacity:0;stroke:#1a1a1a" />
    <path
       d="m 226.65497,368.2161 c 1.99114,0.91756 0.93826,0.46618 3.16552,1.33799 0,0 -4.77579,3.20989 -4.77579,3.20989 l 0,0 c -2.29232,-0.85791 -1.20001,-0.43718 -3.27894,-1.25697 0,0 4.88921,-3.29091 4.88921,-3.29091 z"
       id="path3075"
       style="fill:#000000;fill-opacity:0;stroke:#1a1a1a" />
    <path
       d="m 353.8425,358.11126 c -1.40875,4.08122 -3.28514,6.50452 -6.30433,9.51089 -2.37242,2.4127 -5.17614,4.32043 -7.8521,6.37155 -2.09892,1.58179 -4.24927,3.11859 -6.46246,4.53894 0,0 -5.42701,2.10287 -5.42701,2.10287 l 0,0 c 2.25346,-1.34954 4.37366,-2.9467 6.49488,-4.48893 2.68906,-2.07473 5.53721,-3.9555 7.96616,-6.34125 3.06136,-2.99384 4.91173,-5.02922 6.24104,-9.20852 0,0 5.34382,-2.48555 5.34382,-2.48555 z"
       id="path3077"
       style="fill:#000000;fill-opacity:0;stroke:#1a1a1a" />
    <path
       d="m 319.3494,410.28444 c 7.48718,-5.03202 15.44843,-9.44746 23.49789,-13.52753 4.69649,-2.39917 9.45461,-4.65535 14.05563,-7.23414 0,0 -4.52382,3.65139 -4.52382,3.65139 l 0,0 c -4.50772,2.48792 -9.20353,4.59588 -13.76764,6.97631 -7.28741,3.73298 -9.10428,4.67328 -13.8122,7.92543 0,0 -5.44986,2.20854 -5.44986,2.20854 z"
       id="path3079"
       style="fill:#000000;fill-opacity:0;stroke:#1a1a1a" />
    <path
       d="m 341.11359,380.58964 c 0.47416,6.95721 1.5211,13.84987 2.59647,20.73398 0.83902,5.62058 1.98528,11.19082 2.71986,16.82654 0.39816,4.15021 0.60655,8.30674 1.04945,12.45505 0.31361,2.6783 0.50049,5.36744 0.58616,8.06195 0.17712,2.27776 -0.0794,4.5181 -0.40851,6.76644 -0.12127,1.01552 -0.54456,1.78475 -1.14327,2.57833 0,0 -5.46312,2.2975 -5.46312,2.2975 l 0,0 c 0.71269,-0.66223 1.16713,-1.28953 1.33569,-2.28729 0.33346,-2.21966 0.62308,-4.41807 0.4443,-6.67035 -0.0558,-2.6995 -0.18752,-5.39669 -0.44987,-8.08483 -0.38167,-4.15506 -0.67568,-8.31116 -0.98901,-12.47098 -0.6657,-5.66709 -1.72059,-11.27817 -2.47891,-16.93314 -1.08123,-6.84565 -2.02169,-13.71059 -2.98255,-20.5727 0,0 5.18331,-2.7005 5.18331,-2.7005 z"
       id="path3081"
       style="fill:#000000;fill-opacity:0;stroke:#1a1a1a" />
    <path
       d="m 336.5448,411.7914 c -2.33752,4.41835 -4.86164,8.77013 -7.74932,12.85523 -2.0226,3.20892 -4.97804,5.55163 -7.96393,7.80463 -4.31958,3.43296 -9.08322,6.20191 -13.83905,8.97081 -0.4245,0.10865 -0.84901,0.21731 -1.27351,0.32596 0,0 4.63631,-3.57841 4.63631,-3.57841 l 0,0 c 0.3806,-0.13163 0.76119,-0.26326 1.14179,-0.39489 -1.17283,0.68812 -2.30097,1.45882 -3.5185,2.06436 -0.5455,0.27131 0.99005,-0.71045 1.49163,-1.05628 2.01357,-1.38829 4.13655,-2.61833 6.01137,-4.20276 2.98521,-2.24319 6.01971,-4.49102 8.08666,-7.67112 2.94589,-3.95455 5.46973,-8.25371 7.64128,-12.67443 0,0 5.33527,-2.4431 5.33527,-2.4431 z"
       id="path3083"
       style="fill:#000000;fill-opacity:0;stroke:#1a1a1a" />
    <path
       d="m 349.92738,407.04228 c 3.764,3.0315 6.39814,7.05096 9.12206,10.97098 0,0 -4.90991,2.88007 -4.90991,2.88007 l 0,0 c -2.58422,-3.96312 -5.27531,-7.90659 -9.16896,-10.71591 0,0 4.95681,-3.13514 4.95681,-3.13514 z"
       id="path3085"
       style="fill:#000000;fill-opacity:0;stroke:#1a1a1a" />
    <path
       d="m 370.62724,384.45481 c 1.3079,5.61698 2.22497,11.31114 3.24399,16.98463 0.5761,3.33804 0.28265,1.68856 0.87925,4.94861 0,0 -4.99761,2.65966 -4.99761,2.65966 l 0,0 c -0.58206,-3.28245 -0.30956,-1.62009 -0.8147,-4.98755 -0.93475,-5.6382 -1.80547,-11.30997 -3.44937,-16.79564 0,0 5.13844,-2.80971 5.13844,-2.80971 z"
       id="path3087"
       style="fill:#000000;fill-opacity:0;stroke:#1a1a1a" />
    <path
       d="m 394.97281,356.28267 c 2.95354,11.26286 5.03533,22.71257 7.14664,34.15422 2.42325,12.93971 4.06895,26.00842 5.40406,39.10018 0.60155,5.70957 0.98165,11.43814 1.15161,17.17594 -0.0236,0.47357 0.0681,0.96734 -0.0707,1.42072 -0.68828,2.2477 -6.90327,3.79285 -7.21722,3.88136 -1.27569,0.35967 -5.08609,-2.59059 -6.03225,-3.26008 -2.79419,-2.61911 -1.46536,-1.26423 -3.99197,-4.05925 0,0 4.79924,-2.90728 4.79924,-2.90728 l 0,0 c 2.47161,2.74321 1.15666,1.43049 3.95147,3.93154 1.39548,0.94608 2.60071,1.89426 4.19942,2.48591 0.56558,0.20932 2.06794,-0.15156 1.77035,0.37298 -0.74631,1.3155 -2.39054,1.85369 -3.57043,2.79993 -0.2816,0.22584 0.71279,-0.31565 0.87489,-0.63817 0.21077,-0.41933 0.0997,-0.93333 0.14955,-1.39999 -0.007,-5.80099 -0.21314,-11.60017 -0.65451,-17.38524 -1.0804,-13.15504 -2.55216,-26.29463 -4.96233,-39.27882 -2.20962,-11.29288 -4.33234,-22.64744 -8.04841,-33.56684 0,0 5.10059,-2.82711 5.10059,-2.82711 z"
       id="path3089"
       style="fill:#000000;fill-opacity:0;stroke:#1a1a1a" />
    <path
       d="m 489.23834,366.7537 c 6.04848,0.1348 12.09892,0.13739 18.14857,0.12709 5.10664,-0.13238 10.22752,0.1112 15.32738,-0.20112 3.24431,-0.18553 6.38396,-1.0767 9.58428,-1.57917 2.30568,-0.99322 4.72465,-1.6893 7.02853,-2.67975 0,0 -4.59507,3.62102 -4.59507,3.62102 l 0,0 c -2.3467,0.92497 -4.72301,1.80147 -7.12076,2.57847 -3.15944,0.50858 -6.28084,1.3154 -9.49179,1.43625 -5.04897,0.24314 -10.1065,0.01 -15.15934,0.0405 -6.16629,-0.0106 -12.33325,-0.004 -18.49843,0.12709 0,0 4.77663,-3.47042 4.77663,-3.47042 z"
       id="path3091"
       style="fill:#000000;fill-opacity:0;stroke:#1a1a1a" />
    <path
       d="m 490.2883,387.2588 c 2.60237,0.84227 5.09674,1.95282 7.56982,3.11051 0,0 -4.8583,3.20989 -4.8583,3.20989 l 0,0 c -2.44162,-1.18359 -4.92268,-2.31478 -7.56776,-2.97076 0,0 4.85624,-3.34964 4.85624,-3.34964 z"
       id="path3093"
       style="fill:#000000;fill-opacity:0;stroke:#1a1a1a" />
    <path
       d="m 525.38559,374.76441 c 1.97439,2.48428 3.12205,5.39014 3.90914,8.4307 0.83859,2.85113 -0.57249,5.00181 -2.36934,7.07971 -3.54923,3.7026 -8.3686,5.77877 -12.7894,8.2234 -2.2842,1.23201 -4.6645,2.24169 -7.1169,3.07954 0,0 4.5727,-3.56237 4.5727,-3.56237 l 0,0 c 2.40802,-0.85536 4.74582,-1.87386 7.00021,-3.08305 -7.53595,4.66834 1.95588,-0.80904 2.9324,-2.39094 1.78576,-1.8588 3.37322,-3.85638 2.64364,-6.57457 -0.71075,-2.97727 -1.77843,-5.8387 -3.84759,-8.16131 0,0 5.06514,-3.04111 5.06514,-3.04111 z"
       id="path3095"
       style="fill:#000000;fill-opacity:0;stroke:#1a1a1a" />
    <path
       d="m 472.4875,411.95421 c 6.49926,-0.78603 13.03954,-1.15648 19.57742,-1.43141 6.20786,-0.20657 12.41119,-0.14431 18.61052,-0.55932 3.90908,-0.54175 7.77393,-1.24665 11.71385,-1.52487 3.71309,-0.18268 7.43104,-0.22236 11.14787,-0.25398 2.95872,-0.36512 1.64594,-0.35864 -3.22617,2.25888 0,0 5.53365,-2.16027 5.53365,-2.16027 l 0,0 c -6.10941,3.43899 -3.5498,3.07835 -7.00822,3.3196 -3.69474,-0.002 -7.39292,0.0122 -11.08116,0.25691 -3.88674,0.31985 -7.71548,1.02912 -11.5938,1.42563 -6.17822,0.34135 -12.36092,0.30617 -18.54477,0.49735 -6.61203,0.26738 -13.24445,0.59078 -19.78267,1.67128 0,0 4.65348,-3.4998 4.65348,-3.4998 z"
       id="path3097"
       style="fill:#000000;fill-opacity:0;stroke:#1a1a1a" />
    <path
       d="m 510.72836,345.0071 c -0.0627,7.33524 0.27308,14.67519 0.47657,22.00871 0.1856,6.86427 0.33611,13.73008 0.42586,20.59637 0.0466,5.25158 -0.0125,10.50311 -0.0183,15.75467 -0.0285,5.70158 -0.005,11.40305 0.0221,17.10458 0.0231,3.57681 0.0563,7.15355 0.0854,10.73032 0.005,2.4641 0.0176,4.92838 0.006,7.3925 -0.0146,3.45735 -0.0599,6.91437 -0.0531,10.37184 0.0131,2.31339 -0.003,1.22741 0.0403,3.25805 0,0 -5.19347,2.6462 -5.19347,2.6462 l 0,0 c 0.0426,-2.06464 0.0272,-0.96496 0.0403,-3.29912 0.007,-3.43945 -0.0384,-6.87843 -0.0531,-10.31776 -0.0113,-2.46626 0.001,-4.93269 0.006,-7.39893 0.0291,-3.60594 0.0623,-7.21183 0.0861,-10.8178 0.028,-5.71042 0.0536,-11.42078 0.0299,-17.13127 -10e-4,-5.24226 -0.0478,-10.48444 -0.0303,-15.72676 0.0269,-6.9122 0.0391,-13.8246 -0.12677,-20.73554 -0.19046,-7.26251 -0.54593,-14.51471 -0.9875,-21.76448 0,0 5.24326,-2.67158 5.24326,-2.67158 z"
       id="path3099"
       style="fill:#000000;fill-opacity:0;stroke:#1a1a1a" />
    <path
       d="m 502.23799,421.67113 c -1.83682,3.55586 -4.01149,6.91013 -6.7613,9.82275 -3.42255,3.06966 -7.46275,5.33736 -11.41235,7.64987 -6.30775,3.8789 -13.11229,6.75502 -19.73452,10.01344 -2.20739,1.08182 -4.51375,1.91436 -6.83894,2.69591 0,0 4.51591,-3.51168 4.51591,-3.51168 l 0,0 c 2.2736,-0.77466 4.52911,-1.5983 6.68532,-2.66839 3.44954,-1.68893 6.963,-3.24683 10.39156,-4.97434 0.75963,-0.38275 2.71188,-1.89138 2.27082,-1.16407 -0.52394,0.864 -1.70303,1.08797 -2.55455,1.63196 3.92631,-2.26976 7.89522,-4.54895 11.37881,-7.47093 2.79037,-2.76055 5.01875,-6.05711 6.66763,-9.62115 0,0 5.39161,-2.40337 5.39161,-2.40337 z"
       id="path3101"
       style="fill:#000000;fill-opacity:0;stroke:#1a1a1a" />
    <path
       d="m 521.78904,427.37436 c 4.65565,0.0244 9.21461,1.24397 13.677,2.46617 2.29548,0.60633 1.18238,0.32884 3.33779,0.83851 0,0 -4.77617,3.29517 -4.77617,3.29517 l 0,0 c -2.12039,-0.55439 -1.02633,-0.25655 -3.28087,-0.89828 -4.45297,-1.27854 -9.02934,-2.4754 -13.70269,-2.25417 0,0 4.74494,-3.4474 4.74494,-3.4474 z"
       id="path3103"
       style="fill:#000000;fill-opacity:0;stroke:#1a1a1a" />
    <path
       d="m 80.126563,532.41871 c 6.493409,0.1531 12.989546,0.14406 19.484382,0.14402 5.361315,0.005 10.722125,-0.0789 16.083245,-0.10595 4.61455,-0.0526 9.11158,-1.05424 13.62123,-1.9122 3.75964,-0.35079 7.38691,-1.24647 11.01231,-2.25823 0,0 -4.51617,3.47024 -4.51617,3.47024 l 0,0 c -3.638,0.9872 -7.28542,1.82077 -11.04103,2.22067 -4.5527,0.84293 -9.09603,1.81103 -13.74818,1.87381 -5.26391,-0.0269 -10.52749,-0.11173 -15.791605,-0.10594 -6.627006,-5e-5 -13.25515,-0.006 -19.880815,0.14401 0,0 4.776633,-3.47043 4.776633,-3.47043 z"
       id="path3105"
       style="fill:#000000;fill-opacity:0;stroke:#1a1a1a" />
    <path
       d="m 61.724032,576.90572 c 10.88219,0.30782 21.764519,0.22402 32.645075,-0.0731 9.191013,0.007 18.256843,-1.66312 27.260753,-3.32421 6.05715,-0.80089 12.10229,-1.49099 18.1316,-2.50219 3.68052,-0.94554 7.38543,-1.63791 11.16819,-1.98186 2.03109,-0.13706 1.03585,-0.0801 2.9856,-0.17332 0,0 -4.70081,3.44945 -4.70081,3.44945 l 0,0 c -1.91815,0.09 -0.93893,0.0339 -2.93751,0.17091 -3.72542,0.35712 -7.36753,1.11415 -11.01942,1.91949 -6.00197,0.94668 -12.02495,1.60277 -18.0396,2.44485 -8.88733,1.56545 -17.849275,3.01175 -26.901739,2.95761 -11.085511,0.27282 -22.170931,0.32654 -33.257864,0.50218 0,0 4.665725,-3.38984 4.665725,-3.38984 z"
       id="path3107"
       style="fill:#000000;fill-opacity:0;stroke:#1a1a1a" />
    <path
       d="m 108.6702,540.21709 c -0.0372,8.30308 -0.67438,16.56038 -1.55834,24.81017 -0.67525,6.02361 -1.86207,11.96276 -3.13224,17.88283 -0.8749,3.41494 -2.5085,6.565 -4.067657,9.70651 -1.487474,3.06219 -3.934434,5.40498 -6.501626,7.56523 -3.571962,2.96512 -7.183681,5.88122 -10.694691,8.91887 -4.400554,3.96143 -9.687498,6.61721 -14.844603,9.43182 -2.088227,0.62321 -1.017431,0.2851 -3.210348,1.02076 0,0 4.554215,-3.54045 4.554215,-3.54045 l 0,0 c 2.219645,-0.75057 1.152402,-0.38679 3.202112,-1.09021 -1.179051,0.72923 -2.375444,1.43113 -3.537154,2.18768 -0.476376,0.31023 0.993313,-0.5537 1.479788,-0.84785 2.487219,-1.50389 4.936592,-3.06846 7.098415,-5.02807 3.489256,-3.02334 7.07064,-5.93523 10.611212,-8.89761 2.553052,-2.09461 5.011689,-4.34205 6.5505,-7.31921 1.51345,-3.16686 3.316076,-6.23637 4.249585,-9.64164 1.343092,-5.95179 2.649042,-11.915 3.443712,-17.97104 0.96382,-8.1452 1.73274,-16.3236 1.14875,-24.53399 0,0 5.20837,-2.6538 5.20837,-2.6538 z"
       id="path3109"
       style="fill:#000000;fill-opacity:0;stroke:#1a1a1a" />
    <path
       d="m 109.56938,588.27821 c 5.635,2.52141 11.04389,5.52334 16.49364,8.41783 4.7991,2.57909 9.5514,5.24163 14.56914,7.37776 3.13497,1.51681 6.59799,1.65329 9.92897,2.37141 3.78425,1.05717 7.64338,1.80313 11.39239,2.97994 0,0 -4.68246,3.19187 -4.68246,3.19187 l 0,0 c -3.76664,-1.14815 -7.62286,-1.93559 -11.44679,-2.86961 -3.37796,-0.60772 -6.79757,-0.94893 -9.92281,-2.5252 -4.96888,-2.21671 -9.69973,-4.88409 -14.46705,-7.49916 -5.43386,-2.93212 -10.85184,-6.05953 -16.69678,-8.0933 0,0 4.83175,-3.35154 4.83175,-3.35154 z"
       id="path3111"
       style="fill:#000000;fill-opacity:0;stroke:#1a1a1a" />
    <path
       d="m 219.75343,516.26778 c 8.99269,0.22031 17.98935,0.22272 26.98417,0.19989 7.37383,-0.0265 14.7473,-0.1046 22.12118,-0.12492 5.10508,0.0864 10.18497,-0.46221 15.2446,-1.06358 2.23817,-0.34911 4.46637,-0.75725 6.6981,-1.14448 0,0 -4.57804,3.44501 -4.57804,3.44501 l 0,0 c -2.22051,0.36714 -4.43784,0.75417 -6.66423,1.08478 -5.05504,0.61427 -10.14112,1.05473 -15.23901,0.97574 -7.25925,-0.0201 -14.51809,-0.0985 -21.7773,-0.12492 -9.17828,-0.0235 -18.35813,-0.0145 -27.53441,0.19989 0,0 4.74494,-3.44741 4.74494,-3.44741 z"
       id="path3113"
       style="fill:#000000;fill-opacity:0;stroke:#1a1a1a" />
    <path
       d="m 254.15834,531.76004 c -0.51903,12.21675 -0.48824,24.45033 -0.50872,36.67584 -0.008,10.40133 0.21917,20.80043 0.34541,31.20037 0.0891,5.45137 0.0112,10.90351 0.0384,16.35533 -0.0392,2.39802 0.12631,4.80573 -0.077,7.20042 -0.006,0.0654 -0.21363,2.36716 -0.61171,2.65036 -1.77162,1.26036 -3.75662,2.19004 -5.63493,3.28506 0,0 4.68767,-3.67322 4.68767,-3.67322 l 0,0 c -1.47266,0.94077 -2.85426,2.0422 -4.41798,2.82231 -0.30943,0.15436 0.42455,-0.56026 0.53829,-0.88682 0.97915,-2.81121 0.25672,-5.95624 0.50482,-8.84496 0.0271,-5.46486 -0.0505,-10.93003 0.0384,-16.39444 0.1261,-10.51727 0.35173,-21.03373 0.34541,-31.55236 -0.0202,-12.05258 0.018,-24.114 -0.50873,-36.15742 0,0 5.26072,-2.68047 5.26072,-2.68047 z"
       id="path3115"
       style="fill:#000000;fill-opacity:0;stroke:#1a1a1a" />
    <path
       d="m 257.05165,571.10562 c 4.13327,1.41162 8.17393,3.10858 12.20784,4.78481 0,0 -4.68315,3.12551 -4.68315,3.12551 l 0,0 c -4.03313,-1.71691 -8.09611,-3.49391 -12.35644,-4.55878 0,0 4.83175,-3.35154 4.83175,-3.35154 z"
       id="path3117"
       style="fill:#000000;fill-opacity:0;stroke:#1a1a1a" />
    <path
       d="m 308.64686,527.37946 c 5.36501,0.006 10.65862,-1.47217 15.84836,-2.71697 5.52611,-1.3815 11.18013,-2.48636 16.39934,-4.8252 2.43863,-1.03295 4.92198,-1.93424 7.31112,-3.08012 0,0 -4.55254,3.61944 -4.55254,3.61944 l 0,0 c -2.37996,1.06286 -4.82708,1.95387 -7.21922,2.98842 -5.23479,2.18331 -10.82432,3.27123 -16.3116,4.6355 -5.31955,1.29043 -10.71833,2.74962 -16.22041,2.82634 0,0 4.74495,-3.44741 4.74495,-3.44741 z"
       id="path3119"
       style="fill:#000000;fill-opacity:0;stroke:#1a1a1a" />
    <path
       d="m 330.00191,501.80795 c 0.61722,6.90574 1.49545,13.78359 2.29474,20.66964 1.0025,7.1014 1.78111,14.23099 2.5337,21.36227 0.66015,5.87379 1.50898,11.70956 2.52354,17.53076 0.98548,5.76535 1.26257,11.61059 1.42635,17.44643 0.12942,5.17873 0.14238,10.35931 0.14898,15.53934 0.24742,6.32919 -0.74797,12.58119 -1.99845,18.76224 -0.54152,2.92806 -1.3525,5.79325 -2.12585,8.66509 -0.32148,1.19381 -0.59437,2.70007 -1.3229,3.76213 -0.24629,0.35904 -0.6532,0.57585 -0.97979,0.86377 -6.88834,2.94992 -4.39761,3.90768 -7.76034,1.96646 0,0 4.87216,-3.19562 4.87216,-3.19562 l 0,0 c 2.64698,1.19837 1.57384,0.28442 -2.55468,3.36988 0.39102,-0.20899 0.87464,-0.29907 1.17306,-0.62697 0.81649,-0.89713 1.16427,-2.65645 1.47554,-3.7176 0.84418,-2.87792 1.73795,-5.7466 2.29561,-8.69904 1.23326,-6.11936 2.19425,-12.30892 1.86534,-18.5726 0.0164,-5.19019 0.0469,-10.38098 -0.0516,-15.57061 -0.16568,-5.80654 -0.42612,-11.62683 -1.41263,-17.36259 -1.01853,-5.84193 -1.82979,-11.69985 -2.48118,-17.59566 -0.75159,-7.14701 -1.38123,-14.30769 -2.4019,-21.42381 -0.81444,-6.83452 -1.6548,-13.67052 -2.70297,-20.47302 0,0 5.18331,-2.70049 5.18331,-2.70049 z"
       id="path3121"
       style="fill:#000000;fill-opacity:0;stroke:#1a1a1a" />
    <path
       d="m 311.38898,580.97963 c 5.29549,-3.52123 10.62034,-6.99542 15.79126,-10.69852 3.57227,-2.47133 6.89211,-5.28197 10.49167,-7.71205 0,0 5.35521,-2.0922 5.35521,-2.0922 l 0,0 c -3.7146,2.39297 -7.08478,5.25972 -10.71514,7.77652 -5.07807,3.63647 -10.29158,7.07301 -15.47308,10.5589 0,0 -5.44992,2.16735 -5.44992,2.16735 z"
       id="path3123"
       style="fill:#000000;fill-opacity:0;stroke:#1a1a1a" />
    <path
       d="m 371.14708,493.04805 c 3.4184,3.12036 6.61089,6.46984 9.83428,9.78776 0,0 -4.75436,2.90207 -4.75436,2.90207 l 0,0 c -3.20858,-3.34277 -6.42239,-6.70008 -10.04972,-9.59864 0,0 4.9698,-3.09119 4.9698,-3.09119 z"
       id="path3125"
       style="fill:#000000;fill-opacity:0;stroke:#1a1a1a" />
    <path
       d="m 360.59079,523.088 c 11.22781,-1.50464 22.44693,-3.12992 33.67621,-4.65544 6.38071,-0.84557 3.34934,-0.40271 9.09732,-1.30639 0,0 -4.32301,3.2384 -4.32301,3.2384 l 0,0 c -5.59614,0.76557 -2.64283,0.38648 -8.86209,1.12035 -11.44306,1.45308 -22.85596,3.08503 -34.21903,5.06886 0,0 4.6306,-3.46578 4.6306,-3.46578 z"
       id="path3127"
       style="fill:#000000;fill-opacity:0;stroke:#1a1a1a" />
    <path
       d="m 360.43028,536.74792 c 0.27796,1.7326 0.78195,3.40505 1.30843,5.07372 0,0 -5.0386,2.76814 -5.0386,2.76814 l 0,0 c -0.54519,-1.66208 -1.07024,-3.3282 -1.45907,-5.03562 0,0 5.18924,-2.80624 5.18924,-2.80624 z"
       id="path3129"
       style="fill:#000000;fill-opacity:0;stroke:#1a1a1a" />
    <path
       d="m 362.26516,535.18359 c 3.53859,-0.19077 7.00129,-1.89868 10.58432,-1.55681 0.50005,0.0477 0.97569,0.23942 1.46353,0.35913 3.04569,1.67224 3.8351,5.48374 4.49793,8.63393 0.27475,2.53834 1.1003,5.32593 0.18002,7.79947 -2.71478,3.41849 -7.14758,5.11638 -11.26764,4.21832 -2.65024,-0.93232 -4.65569,-2.92915 -6.40347,-5.05321 -0.98643,-1.13744 -1.97173,-2.26961 -2.91164,-3.44575 0,0 5.00577,-2.98852 5.00577,-2.98852 l 0,0 c 0.92526,1.17916 1.90138,2.30918 2.88255,3.44236 1.72338,1.99279 3.63867,3.92295 6.23545,4.68765 1.22836,0.19739 2.29307,0.24825 3.51292,-0.0709 0.35018,-0.0916 1.32611,-0.55175 1.03024,-0.34323 -8.89451,6.26861 -4.60243,2.90285 -3.46483,1.99903 1.32036,-2.16486 0.23304,-5.14955 0.1073,-7.5197 -0.58018,-2.94302 -1.267,-6.56608 -4.19498,-8.03912 -4.00637,-0.81953 -7.96167,0.91171 -11.92119,1.39559 0,0 4.66372,-3.51826 4.66372,-3.51826 z"
       id="path3131"
       style="fill:#000000;fill-opacity:0;stroke:#1a1a1a" />
    <path
       d="m 389.015,532.34821 c 1.8779,2.36576 3.05414,5.08991 4.01752,7.92116 0.53752,1.36626 0.61647,2.85236 1.22597,4.19582 0.13228,0.29158 0.3072,0.56858 0.52076,0.80713 0.0783,0.0875 0.43029,0.0863 0.32441,0.13698 -1.65016,0.78968 -3.37236,1.41902 -5.05854,2.12853 0.13223,-2.46575 -0.67836,-4.83858 -1.09449,-7.24606 -0.47164,-3.17284 -0.51638,-6.39397 -0.59645,-9.59596 -0.22016,-4.57171 1.57405,-7.24728 7.42217,-7.76471 2.9345,0.34803 5.15172,2.70704 7.29663,4.56131 2.45892,1.96276 4.30955,4.26447 5.0294,7.35087 0.15982,2.48535 -1.38557,4.33717 -2.89615,6.1302 -2.81009,2.8273 -6.44736,5.12113 -10.40848,5.82739 -3.08764,0.34676 -3.88336,0.35609 -6.21759,-1.71097 -1.21328,-1.19589 -2.17002,-2.56965 -2.99123,-4.05164 0,0 5.08808,-2.92272 5.08808,-2.92272 l 0,0 c 0.77552,1.42967 1.6919,2.74359 2.88105,3.86902 2.16446,1.77054 3.19991,1.69452 5.94184,1.25299 2.43247,-0.5628 4.55154,-2.2176 -2.25145,1.94725 -0.29338,0.17961 0.61285,-0.31553 0.90009,-0.50481 0.77554,-0.51108 0.97435,-0.77074 1.63696,-1.42191 1.47462,-1.59038 3.07312,-3.37281 3.13733,-5.64263 -0.5217,-2.99841 -2.43174,-5.18493 -4.74404,-7.07168 -2.05033,-1.73952 -4.26786,-4.06786 -7.12593,-4.05609 -2.27222,0.60254 -2.34388,0.71107 3.44647,-2.45163 0.22997,-0.12561 -0.37457,0.37558 -0.50347,0.60372 -0.58132,1.02885 -0.4667,2.28077 -0.46457,3.40615 0.0376,3.17469 0.0848,6.36327 0.57129,9.5075 0.43543,2.46365 1.21829,4.87085 1.2779,7.38701 -1.78058,1.22286 -3.46965,2.59102 -5.34173,3.6686 -0.0385,0.0222 -0.45324,-0.34792 -0.87287,-1.33024 -0.58062,-1.35919 -0.75709,-2.80353 -1.23515,-4.1939 -0.95391,-2.75957 -1.98641,-5.48761 -3.98087,-7.69557 0,0 5.06514,-3.04111 5.06514,-3.04111 z"
       id="path3133"
       style="fill:#000000;fill-opacity:0;stroke:#1a1a1a" />
    <path
       d="m 362.32692,564.03619 c 5.31736,1.11142 10.61395,2.32352 15.94559,3.37071 5.06927,0.95277 10.21217,1.39862 15.3657,1.28517 3.01823,-0.2234 6.14884,-0.0721 9.09337,-0.91135 0.38326,-0.10924 1.45311,-0.6475 1.1092,-0.44614 -1.45443,0.85152 -2.96619,1.60111 -4.44928,2.40167 0,0 5.50016,-2.21938 5.50016,-2.21938 l 0,0 c -1.89378,1.14209 -3.74625,2.35565 -5.68134,3.42626 -0.54292,0.30038 -2.19029,0.51629 -2.66934,0.5779 -2.47241,0.31799 -4.96118,0.37688 -7.44879,0.48582 -5.17421,0.0634 -10.32805,-0.34554 -15.40213,-1.40646 -5.38143,-1.08871 -10.73197,-2.31543 -16.15038,-3.21594 0,0 4.78724,-3.34826 4.78724,-3.34826 z"
       id="path3135"
       style="fill:#000000;fill-opacity:0;stroke:#1a1a1a" />
    <path
       d="m 380.50954,560.39679 c 0.16612,4.95362 0.6015,9.88179 1.16294,14.80394 -0.28273,-0.47543 0.74233,5.39577 0.52508,3.9325 0,0 -4.99132,3.41406 -4.99132,3.41406 l 0,0 c -0.78843,-1.32937 -0.0805,-3.28091 -0.57671,-4.71006 -0.47432,-4.9117 -0.87031,-9.82577 -1.3033,-14.73994 0,0 5.18331,-2.7005 5.18331,-2.7005 z"
       id="path3137"
       style="fill:#000000;fill-opacity:0;stroke:#1a1a1a" />
    <path
       d="m 394.36535,555.38988 c 3.4146,2.9143 5.17039,6.87501 6.23837,11.13129 0.93704,4.06481 0.91612,8.18605 0.59217,12.31329 -0.50039,2.98224 -1.05078,6.04719 -2.44698,8.75156 0,0 -5.32535,2.37747 -5.32535,2.37747 l 0,0 c 1.57684,-2.56179 1.95984,-5.64526 2.59348,-8.54781 0.4046,-4.08134 0.49926,-8.15291 -0.41863,-12.18744 -1.02837,-4.11263 -2.64382,-8.05298 -6.17239,-10.65524 0,0 4.93933,-3.18312 4.93933,-3.18312 z"
       id="path3139"
       style="fill:#000000;fill-opacity:0;stroke:#1a1a1a" />
    <path
       d="m 368.24586,575.86678 c 3.83076,0.0727 7.66251,0.0416 11.49363,0.0208 4.16549,0.0144 8.33084,0.0331 12.49635,0.0298 2.91992,0.15334 5.79744,-0.45868 8.65514,-0.96663 0,0 -4.58226,3.44978 -4.58226,3.44978 l 0,0 c -2.86861,0.47526 -5.75606,1.01682 -8.67867,0.86316 -4.19282,-0.003 -8.38548,0.0155 -12.57826,0.0298 -3.85021,-0.0212 -7.701,-0.0509 -11.55088,0.0208 0,0 4.74495,-3.44741 4.74495,-3.44741 z"
       id="path3141"
       style="fill:#000000;fill-opacity:0;stroke:#1a1a1a" />
    <path
       d="m 362.52367,591.03634 c 11.42013,-0.7191 22.79196,-2.08055 34.12521,-3.6336 5.2324,-0.75054 10.46289,-1.51134 15.70033,-2.22574 0,0 -4.29671,3.20663 -4.29671,3.20663 l 0,0 c -5.12621,0.62004 -10.24807,1.27316 -15.36344,1.97803 -11.59835,1.54042 -23.21765,2.95103 -34.8628,4.08755 0,0 4.69741,-3.41287 4.69741,-3.41287 z"
       id="path3143"
       style="fill:#000000;fill-opacity:0;stroke:#1a1a1a" />
    <path
       d="m 375.37665,597.41996 c -1.36519,7.47933 -3.25461,14.84825 -4.92496,22.2624 -0.14344,1.34245 -0.51373,3.3171 -0.19054,4.7509 0.12391,0.54971 0.53131,1.20802 1.21754,0.99756 0.3562,-0.10925 1.27349,-0.76705 0.93345,-0.61479 -1.28388,0.57488 -2.51649,1.25802 -3.77474,1.88703 1.37929,-1.34324 2.71737,-2.72782 4.06665,-4.10095 0,0 5.30126,-2.20125 5.30126,-2.20125 l 0,0 c -1.34127,1.36451 -2.69505,2.71785 -3.98608,4.1306 -2.07255,1.30612 -4.08321,2.71602 -6.21764,3.91836 -0.36921,0.20798 -0.8181,0.32667 -1.23952,0.2823 -2.65841,-0.27991 -1.06256,-5.54665 -0.99448,-6.70067 1.75216,-7.25567 3.61586,-14.51334 4.54834,-21.93102 0,0 5.26072,-2.68047 5.26072,-2.68047 z"
       id="path3145"
       style="fill:#000000;fill-opacity:0;stroke:#1a1a1a" />
    <path
       d="m 379.188,588.42936 c 4.37673,2.02176 8.13706,5.04288 11.91449,7.98433 4.07435,3.28713 8.11758,6.61233 12.21544,9.87013 2.63065,2.37696 5.54351,4.36248 8.36435,6.48912 1.81653,1.53772 4.05441,2.09702 6.29393,2.70363 1.97975,0.39939 3.95866,0.77704 5.89166,1.36996 0,0 -4.83339,3.30397 -4.83339,3.30397 l 0,0 c -1.94473,-0.55121 -3.9309,-0.8964 -5.89827,-1.35276 -2.29863,-0.64568 -4.55463,-1.27494 -6.38033,-2.91397 -2.79137,-2.14776 -5.65886,-4.17835 -8.25544,-6.57562 -4.05089,-3.29451 -8.0633,-6.63523 -12.12661,-9.91467 -3.77189,-2.92015 -7.59724,-5.90851 -12.07503,-7.67321 0,0 4.8892,-3.29091 4.8892,-3.29091 z"
       id="path3147"
       style="fill:#000000;fill-opacity:0;stroke:#1a1a1a" />
    <path
       d="m 412.03229,596.09268 c -2.76514,1.35713 -5.53249,2.71339 -8.47445,3.64385 -0.41766,0.10238 -0.83532,0.20476 -1.25298,0.30714 0,0 4.64834,-3.55894 4.64834,-3.55894 l 0,0 c 0.40543,-0.10881 0.81087,-0.21762 1.2163,-0.32643 2.9295,-0.98732 5.72181,-2.33556 8.45196,-3.77847 0,0 -4.58917,3.71285 -4.58917,3.71285 z"
       id="path3149"
       style="fill:#000000;fill-opacity:0;stroke:#1a1a1a" />
    <path
       d="m 461.17989,515.25763 c 5.71645,0.0805 11.44128,0.23604 17.15304,-0.0562 6.19916,-0.73258 12.21622,-2.52192 18.26582,-4.00517 0,0 -4.40695,3.36505 -4.40695,3.36505 l 0,0 c -6.0891,1.46329 -12.13476,3.33806 -18.3843,3.95827 -5.78784,0.20857 -11.58285,-0.002 -17.37255,0.18546 0,0 4.74494,-3.44741 4.74494,-3.44741 z"
       id="path3151"
       style="fill:#000000;fill-opacity:0;stroke:#1a1a1a" />
    <path
       d="m 483.4368,483.64855 c -0.18758,9.70274 0.97696,19.39533 1.8376,29.04974 1.12708,12.10105 1.54771,24.24872 1.77494,36.39484 0.15058,10.24783 0.17535,20.49691 0.22589,30.74556 -0.0537,6.12842 0.10062,12.26262 0.84937,18.34916 0.47264,3.03037 0.98523,6.05238 1.24773,9.10969 0.17165,2.29795 0.15662,4.60394 0.13141,6.90641 0.0715,3.17056 -0.46988,6.30665 -1.29268,9.35672 -0.99016,3.96438 -4.04889,8.95703 -9.09928,7.79233 -3.11292,-1.64938 -4.76527,-5.05157 -6.34031,-8.04189 -1.73156,-3.28745 -3.34662,-6.63499 -5.03545,-9.9446 -2.84405,-5.78882 -6.02664,-11.39166 -9.46462,-16.84439 0,0 4.68255,-2.72082 4.68255,-2.72082 l 0,0 c 3.32192,5.53958 6.35494,11.23921 9.22645,17.02573 1.81399,3.43594 3.34164,6.42116 5.28862,9.76666 1.60987,2.76626 3.32529,6.08326 6.45489,7.35313 2.37957,-0.008 2.05639,-0.16962 -3.20717,2.59239 -0.31759,0.16665 0.50567,-0.51294 0.71417,-0.80477 0.78316,-1.09616 1.14844,-2.40773 1.52996,-3.67821 0.88127,-2.98402 1.42929,-6.08207 1.34661,-9.20399 -0.03,-2.28296 -0.0217,-4.56781 -0.14716,-6.84828 -0.21057,-3.07468 -0.64505,-6.123 -1.07386,-9.17372 -0.70337,-6.16313 -0.68304,-12.37194 -0.57096,-18.5667 0.0623,-10.27926 0.10504,-20.55936 -0.0231,-30.83833 -0.20528,-12.14626 -0.54459,-24.29832 -1.68333,-36.39953 -0.92011,-9.56681 -2.09212,-19.12295 -2.58068,-28.72333 0,0 5.20837,-2.6538 5.20837,-2.6538 z"
       id="path3153"
       style="fill:#000000;fill-opacity:0;stroke:#1a1a1a" />
    <path
       d="m 456.92578,572.11595 c 5.346,-2.8884 10.86264,-5.4409 16.32024,-8.10864 4.74925,-2.44828 9.65503,-4.61753 14.86396,-5.85733 1.62615,-0.16608 3.18372,-0.67836 4.75891,-1.08631 0,0 -4.59509,3.52013 -4.59509,3.52013 l 0,0 c -1.57463,0.40923 -3.14543,0.85789 -4.76181,1.07571 -5.08804,1.23926 -9.88116,3.3617 -14.5293,5.75171 -5.5742,2.72328 -11.20144,5.35099 -16.61651,8.38457 0,0 4.5596,-3.67984 4.5596,-3.67984 z"
       id="path3155"
       style="fill:#000000;fill-opacity:0;stroke:#1a1a1a" />
    <path
       d="m 526.6101,474.0092 c 3.34855,4.15119 6.52111,8.43808 9.80246,12.64179 0,0 -4.82128,2.87268 -4.82128,2.87268 l 0,0 c -3.26703,-4.21429 -6.36419,-8.56814 -9.9917,-12.48971 0,0 5.01052,-3.02476 5.01052,-3.02476 z"
       id="path3157"
       style="fill:#000000;fill-opacity:0;stroke:#1a1a1a" />
    <path
       d="m 509.53459,501.97315 c 9.72596,-0.34613 19.45215,-0.41105 29.17531,-0.88816 9.17144,-0.4643 18.33628,-1.27024 27.3926,-2.8069 2.76302,-0.47726 1.42168,-0.26305 4.02302,-0.64878 0,0 -4.60659,3.4497 -4.60659,3.4497 l 0,0 c -2.54184,0.36286 -1.23309,0.16848 -3.92584,0.58594 -8.89277,1.33414 -17.88603,1.83843 -26.85758,2.33884 -9.97258,0.53334 -19.97264,0.61332 -29.92228,1.4801 0,0 4.72136,-3.51074 4.72136,-3.51074 z"
       id="path3159"
       style="fill:#000000;fill-opacity:0;stroke:#1a1a1a" />
    <path
       d="m 515.7704,518.87861 c 0.0209,4.16134 1.07162,8.22827 1.74066,12.31601 0,0 -5.05084,2.66415 -5.05084,2.66415 l 0,0 c -0.50069,-4.13009 -1.54606,-8.1723 -1.91564,-12.31747 0,0 5.22582,-2.66269 5.22582,-2.66269 z"
       id="path3161"
       style="fill:#000000;fill-opacity:0;stroke:#1a1a1a" />
    <path
       d="m 515.53431,520.73661 c 4.68932,-1.77876 9.39777,-3.60984 14.40301,-4.20377 3.53141,-0.0752 5.19722,1.26721 6.4541,4.43134 0.73039,2.31303 0.81851,4.51675 -0.26302,6.70294 -2.12499,3.54253 -6.02513,5.90096 -10.00214,6.91323 -1.51198,0.29481 -3.06031,0.29528 -4.59439,0.31834 0,0 4.72413,-3.45048 4.72413,-3.45048 l 0,0 c 1.52158,-0.0536 3.06011,-0.0798 4.54257,-0.46933 2.48917,-0.82266 1.07682,-0.4324 -3.1998,2.18442 -0.29519,0.18062 0.61687,-0.31815 0.90128,-0.5153 0.96438,-0.66853 1.68416,-1.5803 2.27288,-2.58393 1.22147,-1.98019 1.12962,-4.04064 0.48828,-6.24206 -1.1175,-2.95676 -2.65397,-3.98552 -5.88594,-3.88719 -5.02807,0.66155 -9.77262,2.522 -14.43993,4.44641 0,0 4.59897,-3.64462 4.59897,-3.64462 z"
       id="path3163"
       style="fill:#000000;fill-opacity:0;stroke:#1a1a1a" />
    <path
       d="m 546.50165,516.62867 c 1.38957,3.57703 2.05516,7.36436 2.79069,11.113 0,0 -5.04389,2.68441 -5.04389,2.68441 l 0,0 c -0.61181,-3.71552 -1.27551,-7.46967 -2.8593,-10.91711 0,0 5.1125,-2.8803 5.1125,-2.8803 z"
       id="path3165"
       style="fill:#000000;fill-opacity:0;stroke:#1a1a1a" />
    <path
       d="m 548.83734,515.24612 c 3.07016,0.0555 6.14115,0.0314 9.21162,0.0198 0.87904,6.3e-4 1.85052,-0.098 2.69021,0.28196 1.90499,0.86193 2.94146,3.33602 3.80155,5.07275 1.19116,2.56646 1.55929,5.32805 1.7167,8.11857 -0.40577,4.50675 -5.75069,6.37793 -9.77636,6.93861 -2.67022,0.20973 -5.37583,0.41728 -8.04268,0.10093 0,0 4.76829,-3.39319 4.76829,-3.39319 l 0,0 c 2.64077,0.20704 5.30884,0.0963 7.93783,-0.21657 0.45231,-0.0899 0.91196,-0.14868 1.35693,-0.26982 0.38467,-0.10474 1.45277,-0.63291 1.12503,-0.40592 -1.30743,0.90551 -2.70302,1.67846 -4.08889,2.45864 -0.28801,0.16214 0.57099,-0.35219 0.78877,-0.60081 0.5365,-0.61247 0.55553,-1.16453 0.73135,-1.92817 -0.13061,-2.71624 -0.43456,-5.42462 -1.55068,-7.9403 -1.54667,-3.16189 -2.35933,-4.97687 -6.18016,-4.78587 -3.08865,-0.0118 -6.17779,-0.0351 -9.26614,0.0198 0,0 4.77663,-3.47043 4.77663,-3.47043 z"
       id="path3167"
       style="fill:#000000;fill-opacity:0;stroke:#1a1a1a" />
    <path
       d="m 516.9641,548.60418 c 8.07506,0.19764 16.15322,0.16714 24.22988,0.12928 5.48375,-0.0602 10.96765,-0.072 16.4516,-0.0928 3.19452,-0.0252 6.38909,-0.0321 9.58368,-0.0423 0.58259,-0.0902 1.19194,0.0599 1.77251,-0.0592 0,0 -4.89213,3.55434 -4.89213,3.55434 l 0,0 c -0.50294,-0.0351 -1.11242,-0.0861 -1.60954,-0.0592 -3.15579,-0.0102 -6.31156,-0.0169 -9.46729,-0.0423 -5.39882,-0.0207 -10.79759,-0.032 -16.1962,-0.0928 -8.19533,-0.0389 -16.39194,-0.0634 -24.58577,0.12928 0,0 4.71326,-3.42438 4.71326,-3.42438 z"
       id="path3169"
       style="fill:#000000;fill-opacity:0;stroke:#1a1a1a" />
    <path
       d="m 532.93427,544.2577 c -0.2002,5.61825 -0.13939,11.24215 -0.0771,16.86247 0.02,0.51126 0.0401,1.02252 0.0601,1.53378 0,0 -5.17439,2.63649 -5.17439,2.63649 l 0,0 c 0.02,-0.53167 0.0401,-1.06334 0.0601,-1.59501 0.0613,-5.5941 0.12555,-11.19199 -0.0771,-16.78393 0,0 5.20837,-2.6538 5.20837,-2.6538 z"
       id="path3171"
       style="fill:#000000;fill-opacity:0;stroke:#1a1a1a" />
    <path
       d="m 546.50278,539.72536 c 2.68835,5.61474 3.8862,11.78298 5.08788,17.84832 0.50111,3.1185 1.18565,6.20243 1.79716,9.30002 0,0 -5.08981,2.70991 -5.08981,2.70991 l 0,0 c -0.52355,-3.13864 -1.12849,-6.26372 -1.56927,-9.41581 -1.10552,-5.99751 -2.29396,-12.17175 -5.34072,-17.53017 0,0 5.11476,-2.91227 5.11476,-2.91227 z"
       id="path3173"
       style="fill:#000000;fill-opacity:0;stroke:#1a1a1a" />
    <path
       d="m 518.51052,554.49204 c 4.04334,-0.33612 8.09277,-0.56051 12.14702,-0.7037 4.3711,-0.0879 8.74352,-0.0889 13.11535,-0.11927 3.48765,0.30964 6.96916,0.64957 10.46677,0.83392 2.06778,0.0834 1.08423,0.0525 2.95047,0.0978 0,0 -4.74523,3.42052 -4.74523,3.42052 l 0,0 c -1.82577,-0.0933 -0.85509,-0.046 -2.91211,-0.14023 -3.47649,-0.22221 -6.94204,-0.5595 -10.41451,-0.82926 -4.3624,-0.0192 -8.72549,-0.0169 -13.08628,0.12144 -4.09194,0.13535 -8.18966,0.32956 -12.25361,0.84764 0,0 4.73213,-3.52882 4.73213,-3.52882 z"
       id="path3175"
       style="fill:#000000;fill-opacity:0;stroke:#1a1a1a" />
    <path
       d="m 526.7269,569.80011 c 5.56888,0.14186 11.14059,0.095 16.71072,0.082 4.62975,7e-4 9.25948,-0.0207 13.88914,-0.0497 1.51517,-0.0241 0.8984,0.0149 1.85293,-0.0626 0,0 -4.84429,3.51958 -4.84429,3.51958 l 0,0 c -0.82057,-0.0858 -0.26195,-0.039 -1.68057,-0.0626 -4.58406,-0.0293 -9.16821,-0.0505 -13.75238,-0.0497 -5.64536,-0.0133 -11.29214,-0.0573 -16.93634,0.082 0,0 4.76079,-3.45892 4.76079,-3.45892 z"
       id="path3177"
       style="fill:#000000;fill-opacity:0;stroke:#1a1a1a" />
    <path
       d="m 534.36466,580.11945 c -5.69777,4.27096 -11.76384,8.06981 -17.80069,11.85 -4.09145,2.42992 -8.17749,4.87705 -12.50051,6.87494 0,0 4.43949,-3.5302 4.43949,-3.5302 l 0,0 c 7.32738,-3.42014 -6.73695,3.89141 3.01149,-1.38686 5.91057,-3.66599 11.84401,-7.38114 17.3717,-11.59658 0,0 5.47852,-2.2113 5.47852,-2.2113 z"
       id="path3179"
       style="fill:#000000;fill-opacity:0;stroke:#1a1a1a" />
    <path
       d="m 531.14135,587.38772 c 0.68573,4.33633 1.15104,8.70338 1.51334,13.0774 0.18851,0.71882 0.26753,5.09921 1.93099,4.72801 0.30557,-0.0682 0.53288,-0.32884 0.79932,-0.49326 -1.26226,0.64214 -2.40612,1.6111 -3.78678,1.92641 -0.63853,0.14583 0.94882,-0.90409 1.39792,-1.38085 0.47945,-0.50898 0.9307,-1.04391 1.38604,-1.57458 1.22737,-1.43045 2.45656,-2.85909 3.68137,-4.29197 0.17698,-0.40056 0.35395,-0.80112 0.53093,-1.20169 0,0 5.2945,-2.45139 5.2945,-2.45139 l 0,0 c -0.16524,0.46574 -0.33047,0.93147 -0.4957,1.39721 -1.24275,1.44726 -2.5148,2.85842 -3.74112,4.32007 -0.17501,0.20859 -2.36732,2.82324 -2.66153,3.02851 -2.00931,1.40191 -4.17515,2.5649 -6.26273,3.84735 -0.36904,0.0483 -0.73998,0.20612 -1.10711,0.14501 -1.79263,-0.29836 -1.87504,-4.1067 -2.0699,-5.35164 -0.26946,-4.33816 -0.62581,-8.69315 -1.58935,-12.94104 0,0 5.17981,-2.78355 5.17981,-2.78355 z"
       id="path3181"
       style="fill:#000000;fill-opacity:0;stroke:#1a1a1a" />
    <path
       d="m 537.99715,580.34219 c 5.82056,2.08549 11.61688,4.232 17.31285,6.6385 5.32098,2.36648 10.68138,4.63866 16.19635,6.51486 3.23461,0.9278 6.43182,1.98947 9.69631,2.80908 1.64243,0.40544 3.32848,0.55221 5.00997,0.6814 0,0 -4.79984,3.41825 -4.79984,3.41825 l 0,0 c -1.68015,-0.19136 -3.37204,-0.34852 -5.00911,-0.7965 -3.23519,-0.8736 -6.43001,-1.89528 -9.62016,-2.91919 -5.44039,-1.97729 -10.72828,-4.30961 -16.00748,-6.68008 -5.77291,-2.37817 -11.62595,-4.58831 -17.61516,-6.36352 0,0 4.83627,-3.3028 4.83627,-3.3028 z"
       id="path3183"
       style="fill:#000000;fill-opacity:0;stroke:#1a1a1a" />
    <path
       d="m 572.03545,576.30421 c -0.76689,2.0771 -0.33596,0.98666 -1.31153,3.26383 0,0 -5.22379,2.40235 -5.22379,2.40235 l 0,0 c 0.92811,-2.20129 0.54138,-1.13723 1.1915,-3.18063 0,0 5.34382,-2.48555 5.34382,-2.48555 z"
       id="path3185"
       style="fill:#000000;fill-opacity:0;stroke:#1a1a1a" />
    <path
       d="m 68.255375,661.56067 c -0.293627,11.86988 -0.642264,23.73882 -0.908646,35.60973 -0.101681,5.95915 -0.170802,11.91936 -0.16477,17.8795 0.0013,1.25624 -0.10633,4.3325 0.296459,5.81731 0.09088,0.33502 0.379991,0.58103 0.569986,0.87155 0.0955,0.44786 2.086343,-1.05395 1.548425,-0.82461 -1.313721,0.56012 -2.450192,1.52606 -3.812413,1.95495 -0.572009,0.18009 0.901264,-0.7914 1.356532,-1.18173 2.554536,-2.19017 0.48196,-0.34967 2.911596,-2.53879 1.849933,-1.85812 3.897092,-3.4957 5.878958,-5.20645 0,0 5.319665,-2.15904 5.319665,-2.15904 l 0,0 c -1.971842,1.71432 -4.041835,3.31704 -5.872436,5.18899 -3.71518,3.40629 -5.46203,4.73222 -10.35015,7.62624 -0.36151,0.21404 -0.763398,0.42171 -1.183342,0.43382 -0.322743,0.009 -0.595694,-0.24929 -0.89354,-0.37394 -0.172193,-0.38937 -0.442401,-0.74888 -0.516578,-1.16811 -0.266386,-1.50557 3.28e-4,-4.82731 0.04859,-6.05779 0.236418,-6.02795 0.411932,-12.05835 0.574494,-18.08864 0.251762,-11.71049 0.534847,-23.43037 0.0063,-35.13808 0,0 5.190919,-2.64491 5.190919,-2.64491 z"
       id="path3187"
       style="fill:#000000;fill-opacity:0;stroke:#1a1a1a" />
    <path
       d="m 74.255436,692.75749 c 5.511316,-0.82408 11.082903,-1.15892 16.644005,-1.4391 0,0 -4.514216,3.31357 -4.514216,3.31357 l 0,0 c -5.621168,0.26603 -11.269253,0.57859 -16.802671,1.66358 0,0 4.672882,-3.53805 4.672882,-3.53805 z"
       id="path3189"
       style="fill:#000000;fill-opacity:0;stroke:#1a1a1a" />
    <path
       d="m 114.73112,659.41509 c -0.23685,7.62969 -0.24288,15.26502 -0.22139,22.89769 -0.0612,5.8165 0.3339,11.62079 1.16643,17.37384 0.55407,3.0277 0.88243,6.18957 2.20465,8.99715 2.51375,3.30081 7.10204,3.15657 10.87274,3.4436 5.22948,0.2802 10.469,0.24265 15.70368,0.19458 2.83793,-0.23698 5.9549,0.61236 8.50839,-0.89015 -1.43438,0.67258 -2.73077,1.82414 -4.30314,2.01774 -0.54724,0.0674 0.42519,-1.02189 0.55918,-1.55674 0.79686,-3.18102 0.51748,-6.3663 -0.0395,-9.54791 0,0 5.02228,-2.66762 5.02228,-2.66762 l 0,0 c 0.54712,3.24091 0.80942,6.47238 0.24678,9.7394 -0.0985,0.57182 0.0127,1.29517 -0.41115,1.69147 -1.69149,1.58162 -3.78558,2.66833 -5.67837,4.00249 -2.69463,1.09328 -5.70352,0.40599 -8.5426,0.58311 -5.20415,-0.0187 -10.41009,-0.0548 -15.60891,-0.31618 -4.04919,-0.28813 -8.79881,-0.185 -11.40822,-3.81382 -1.38387,-2.85328 -1.66651,-6.11232 -2.18499,-9.21081 -0.77645,-5.83526 -0.99788,-11.72648 -0.87288,-17.61196 0.0212,-7.55743 0.0185,-15.11773 -0.22139,-22.67208 0,0 5.20837,-2.6538 5.20837,-2.6538 z"
       id="path3191"
       style="fill:#000000;fill-opacity:0;stroke:#1a1a1a" />
    <path
       d="m 144.28178,675.40409 c -0.66433,0.66585 -1.28783,1.37511 -1.99299,1.99755 -0.67481,0.59565 -6.45017,5.17906 -6.94318,5.56659 -3.33685,2.62295 -6.68599,5.21067 -10.13636,7.68174 0,0 -5.06633,1.9987 -5.06633,1.9987 l 0,0 c 3.51378,-2.4594 6.9137,-5.048 10.28113,-7.70552 2.24362,-1.77064 4.54684,-3.4743 6.67344,-5.3839 0.64408,-0.57836 1.19473,-1.25298 1.7921,-1.87947 0,0 5.39219,-2.27569 5.39219,-2.27569 z"
       id="path3193"
       style="fill:#000000;fill-opacity:0;stroke:#1a1a1a" />
    <path
       d="m 102.75961,727.84719 c -6.186121,4.54672 -12.477626,8.98212 -18.987484,13.05629 -2.499218,1.44228 -5.007063,2.8697 -7.497653,4.32682 -0.811081,0.47453 1.53278,-1.53828 2.458852,-1.37886 0.742323,0.12779 -1.22467,0.91186 -1.678226,1.51325 -1.721188,2.28217 -1.187587,5.18216 -0.970476,7.79053 0.997235,5.51402 1.943505,11.14457 4.43878,16.20817 1.06643,2.2522 2.774969,4.10014 4.533082,5.83289 1.617657,1.42798 2.786114,3.2212 4.16258,4.85464 1.276522,1.62109 3.02006,2.30505 4.98191,2.67545 3.225371,0.34922 6.481445,0.28888 9.721345,0.29119 3.80991,0.12321 7.5906,-0.13717 11.37772,-0.51357 1.89362,-0.38153 3.89406,-0.13886 5.78824,-0.4634 1.04391,-0.17886 1.37412,-0.47077 2.30574,-0.98585 -1.25039,0.6546 -2.41789,1.50086 -3.75118,1.9638 -0.51467,0.1787 0.83307,-0.70389 1.22184,-1.08557 1.74223,-1.71044 3.30171,-3.62376 4.80929,-5.53853 2.93868,-3.74489 4.10869,-8.30666 5.0525,-12.87808 0.67578,-3.87631 1.22345,-7.80321 0.66879,-11.72009 -1.63417,-3.96829 -5.44884,-6.29998 -8.87642,-8.59589 -3.40542,-2.24478 -7.01246,-4.12534 -10.93757,-5.24693 -4.50596,-0.84765 -9.00241,-1.75009 -13.549013,-2.37765 -3.754909,-0.54609 -7.437518,-0.87319 -11.106902,0.21777 -0.423007,0.25723 -1.73564,0.9371 -1.26902,0.77168 1.342058,-0.47578 2.492477,-1.63998 3.914673,-1.7096 0.582132,-0.0285 -0.587834,1.01243 -0.795755,1.55691 -0.818334,2.14295 -0.978161,4.47428 -1.204826,6.73028 -0.412294,3.48318 -0.244454,6.09253 1.065161,9.32632 0,0 -5.052798,2.82498 -5.052798,2.82498 l 0,0 c -1.320911,-3.24727 -1.553315,-6.13257 -1.089574,-9.62461 0.139251,-1.55471 0.575652,-7.50725 1.743267,-8.53954 3.542907,-3.13229 4.339549,-3.43112 7.288277,-4.86823 3.702774,-0.91326 7.397219,-0.54669 11.13649,0.0496 4.57139,0.66732 9.12889,1.47801 13.65096,2.4063 3.95628,1.18211 7.5795,3.12563 11.01563,5.40769 3.55014,2.41864 7.43439,4.87116 9.18318,8.96935 0.61099,4.00095 0.007,8.00897 -0.71328,11.96599 -0.94161,4.5921 -1.94039,9.25854 -4.84592,13.0681 -1.13571,1.49976 -2.32112,2.88171 -3.57291,4.28338 -0.53951,0.60411 -1.63191,1.98119 -2.33819,2.45522 -2.0194,1.35535 -4.13856,2.55582 -6.20784,3.83373 -2.6588,1.18223 -5.31731,0.89374 -8.16462,1.23566 -3.79082,0.34494 -7.57816,0.58303 -11.388008,0.45313 -3.306025,-1.4e-4 -6.639317,0.12212 -9.924919,-0.29402 -2.053617,-0.47332 -3.851993,-1.31666 -5.194498,-3.00924 -1.343493,-1.64069 -2.515543,-3.40447 -4.129647,-4.81359 -1.766541,-1.81916 -3.512065,-3.70458 -4.51452,-6.07195 -2.388488,-5.19973 -3.159017,-10.92366 -4.345678,-16.48021 -0.311223,-2.66438 -0.998935,-5.76012 0.623839,-8.19657 1.56741,-2.35332 8.235132,-5.46025 8.786402,-5.77856 0.64283,-0.37118 -1.277011,0.75714 -1.915516,1.13572 6.44179,-3.94098 12.630904,-8.30484 18.671881,-12.83064 0,0 5.422014,-2.2037 5.422014,-2.2037 z"
       id="path3195"
       style="fill:#000000;fill-opacity:0;stroke:#1a1a1a" />
    <path
       d="m 90.340998,762.73925 c 5.528655,0.30801 11.015512,0.0383 16.510982,-0.57121 0,0 -4.31786,3.20916 -4.31786,3.20916 l 0,0 c -5.642936,0.60187 -11.278322,0.85654 -16.95391,0.82096 0,0 4.760788,-3.45891 4.760788,-3.45891 z"
       id="path3197"
       style="fill:#000000;fill-opacity:0;stroke:#1a1a1a" />
    <path
       d="m 200.53016,709.06847 c 4.16757,3.52989 8.15335,7.38199 12.85595,10.19576 0.74278,0.15902 1.46876,0.47105 2.22835,0.47704 3.2794,0.0259 6.79285,-2.24768 9.50667,-3.73356 17.64664,-9.66193 -9.73748,5.09917 8.79513,-4.85896 8.48153,-4.68878 17.24681,-8.82192 26.30624,-12.25692 6.92017,-2.60566 14.25724,-3.29485 21.57802,-3.64143 2.99792,-0.10763 5.99736,-0.16585 8.99697,-0.19774 0.42212,-0.004 3.37659,-0.0824 3.97213,0.10954 0.51983,0.16753 0.91862,0.59101 1.37793,0.88651 0.32234,0.58717 0.7434,1.1301 0.96702,1.7615 0.5807,1.63961 0.8463,4.43688 0.96412,6.0685 0.34222,4.73949 -0.0972,9.17308 -0.75309,13.86393 -1.96338,10.62886 -6.86866,20.25631 -12.35388,29.44866 -4.87013,7.70709 -9.18651,15.71377 -13.03475,23.97289 -1.89585,3.2342 -2.50445,8.12478 -6.08615,10.13329 -7.01482,3.93372 -4.78702,3.70517 -9.75054,3.15268 -0.87892,-0.30116 -1.80541,-0.48866 -2.63675,-0.90347 -6.48281,-3.23468 -11.66989,-11.92287 -15.57332,-17.6874 -3.10674,-4.91842 -6.08379,-9.9152 -9.02319,-14.93457 0,0 4.53294,-2.61295 4.53294,-2.61295 l 0,0 c 2.80021,5.08163 5.67006,10.12333 8.81973,14.99999 4.00556,5.64413 9.31125,14.08651 15.88895,17.07712 0.81733,0.37161 1.71828,0.52153 2.57741,0.78229 4.19892,0.16501 2.56674,-0.4599 -0.10106,2.23473 -0.56326,0.56893 1.39552,-0.82656 1.94564,-1.4082 2.25847,-2.38786 2.81845,-5.88581 4.5142,-8.60509 3.90187,-8.28404 8.17791,-16.36939 13.13514,-24.07897 5.54881,-9.09489 10.49137,-18.66048 12.42373,-29.24693 0.66232,-4.75997 1.05984,-8.82294 0.59069,-13.62599 -0.15981,-1.6361 -0.4551,-4.13421 -1.07033,-5.75573 -0.20252,-0.53375 -0.57489,-0.98646 -0.86233,-1.47969 -0.3982,-0.22682 -0.7537,-0.55549 -1.1946,-0.68047 -0.61733,-0.175 -3.39032,-0.15041 -3.83294,-0.15221 -2.9535,-0.012 -5.90766,0.0103 -8.85926,0.12696 -7.25814,0.38002 -14.52368,1.1029 -21.37928,3.7037 -9.01071,3.41579 -17.71094,7.55944 -26.14697,12.22001 -1.52259,0.82512 -3.04519,1.65023 -4.56778,2.47534 -1.44197,0.81749 -2.86886,1.66218 -4.32591,2.45247 -2.89271,1.56899 -6.52016,3.86404 -10.01659,3.61847 -0.79682,-0.056 -1.54009,-0.4247 -2.31013,-0.63706 -4.62832,-2.97621 -8.56901,-6.88346 -13.02397,-10.11006 0,0 4.92586,-3.15398 4.92586,-3.15398 z"
       id="path3199"
       style="fill:#000000;fill-opacity:0;stroke:#1a1a1a" />
    <path
       d="m 258.30238,670.11862 c 0.66192,7.68016 0.9704,15.37651 1.19245,23.08047 -0.0433,7.80245 0.99816,15.69694 -0.17187,23.46401 -0.1768,1.17365 -0.46955,2.32689 -0.70433,3.49034 -1.71485,7.93075 -7.77302,13.42624 -13.36133,18.85705 -8.00833,8.35823 -18.00916,14.01751 -28.17476,19.32498 -5.85657,2.81012 -11.55361,6.25761 -17.92942,7.74012 0,0 4.51215,-3.44033 4.51215,-3.44033 l 0,0 c 6.21526,-1.48089 11.78555,-4.82129 17.49703,-7.57678 1.51379,-0.80082 3.01474,-1.62639 4.54136,-2.40247 0.14948,-0.076 -0.54539,0.38998 -0.40431,0.29935 5.40535,-3.47252 10.58055,-7.28849 15.06243,-11.92471 5.48987,-5.35635 11.48039,-10.73337 13.31881,-18.48926 0.25457,-1.15382 0.56584,-2.29658 0.7637,-3.46147 1.31977,-7.76996 0.47469,-15.69499 0.45515,-23.51908 -0.31282,-7.58691 -0.68605,-15.17992 -1.82296,-22.69711 0,0 5.2259,-2.74511 5.2259,-2.74511 z"
       id="path3201"
       style="fill:#000000;fill-opacity:0;stroke:#1a1a1a" />
    <path
       d="m 262.11739,740.95854 c 2.45027,1.11852 4.91299,2.19668 7.32055,3.40633 0,0 -4.81879,3.16231 -4.81879,3.16231 l 0,0 c -2.3788,-1.25653 -4.83077,-2.35622 -7.36347,-3.27002 0,0 4.86171,-3.29862 4.86171,-3.29862 z"
       id="path3203"
       style="fill:#000000;fill-opacity:0;stroke:#1a1a1a" />
    <path
       d="m 215.46416,670.55816 c 4.44996,3.32618 8.62843,7.04649 12.40809,11.11786 3.34674,3.61737 6.44376,7.44362 9.05379,11.62616 1.28286,2.20755 2.28115,4.50886 2.78756,7.01145 0.0473,0.34344 0.0947,0.68688 0.14204,1.03032 0,0 -5.2175,2.7438 -5.2175,2.7438 l 0,0 c -0.0405,-0.33344 -0.0809,-0.66688 -0.12139,-1.00032 -0.44793,-2.45045 -1.39127,-4.70242 -2.58545,-6.88689 -2.48193,-4.20692 -5.48871,-8.04759 -8.78627,-11.64884 -3.81663,-4.03684 -7.95586,-7.83515 -12.65348,-10.8322 0,0 4.97261,-3.16134 4.97261,-3.16134 z"
       id="path3205"
       style="fill:#000000;fill-opacity:0;stroke:#1a1a1a" />
    <path
       d="m 362.33422,669.36559 c 0.25761,5.10045 0.49724,10.20207 0.71139,15.30457 0.38445,5.59647 -0.47158,7.08808 -4.66959,10.73419 -4.04513,2.4669 -8.12487,4.92219 -12.36638,7.03882 -2.28108,1.13832 -4.68384,2.00051 -7.0278,2.99524 -2.08575,0.78132 -4.20411,1.47541 -6.32231,2.16444 0,0 4.61027,-3.57635 4.61027,-3.57635 l 0,0 c 2.07495,-0.67511 4.16088,-1.32594 6.19302,-2.12267 2.32011,-0.95257 4.66051,-1.83467 6.90227,-2.9678 0.85858,-0.43397 1.5821,-1.27042 2.53866,-1.37279 0.2633,-0.0282 -6.36695,3.74242 0.21593,-0.0335 4.17687,-3.42159 5.1734,-4.76475 4.85633,-10.25659 -0.10296,-5.07072 -0.23037,-10.15357 -0.83995,-15.19335 0,0 5.19816,-2.71419 5.19816,-2.71419 z"
       id="path3207"
       style="fill:#000000;fill-opacity:0;stroke:#1a1a1a" />
    <path
       d="m 299.61307,721.90778 c 4.64676,2.03787 9.0881,4.50235 13.79712,6.39461 4.99958,1.80276 10.31709,2.00024 15.5695,2.18688 11.05841,0.84647 21.05751,-2.8514 31.03039,-7.15119 -2.76411,1.28673 14.21845,-6.88362 8.87205,-4.82661 0,0 4.99678,-1.93596 4.99678,-1.93596 l 0,0 c -5.84855,3.48124 -11.64863,7.03978 -17.83844,9.89924 -10.15475,4.30481 -20.34144,7.95849 -31.55995,7.26175 -5.33321,-0.14695 -10.71763,-0.37058 -15.7653,-2.29492 -4.70883,-1.97454 -9.16861,-4.49218 -13.96227,-6.2778 0,0 4.86012,-3.256 4.86012,-3.256 z"
       id="path3209"
       style="fill:#000000;fill-opacity:0;stroke:#1a1a1a" />
    <path
       d="m 358.16916,708.02769 c 0.032,9.21341 -1.05912,18.34635 -2.2026,27.47096 -0.78021,6.25086 -1.4334,12.52025 -1.74325,18.81319 -0.16357,2.33246 0.47127,4.88762 -1.54718,6.51243 0,0 -5.52559,2.13374 -5.52559,2.13374 l 0,0 c 2.49158,-1.05883 1.68473,-3.80493 1.94334,-6.07165 0.45923,-6.38227 1.343,-12.71976 2.16291,-19.0636 1.19452,-9.00016 2.41486,-18.04929 1.72145,-27.15016 0,0 5.19092,-2.64491 5.19092,-2.64491 z"
       id="path3211"
       style="fill:#000000;fill-opacity:0;stroke:#1a1a1a" />
    <path
       d="m 346.22033,740.87651 c -2.44597,1.99592 -4.99315,3.84387 -7.65035,5.54539 0,0 -5.31112,2.06185 -5.31112,2.06185 l 0,0 c 2.6351,-1.62815 5.1882,-3.38056 7.51154,-5.43988 0,0 5.44993,-2.16736 5.44993,-2.16736 z"
       id="path3213"
       style="fill:#000000;fill-opacity:0;stroke:#1a1a1a" />
    <path
       d="m 375.88759,733.51225 c 2.65551,4.06674 6.09992,7.46867 9.7171,10.66718 1.50202,1.49337 3.26184,2.61604 5.0753,3.67711 0,0 -4.83434,3.12487 -4.83434,3.12487 l 0,0 c -1.79481,-1.12545 -3.54539,-2.30384 -5.04338,-3.82232 -3.61753,-3.27601 -7.03615,-6.75203 -9.98897,-10.65143 0,0 5.07429,-2.99541 5.07429,-2.99541 z"
       id="path3215"
       style="fill:#000000;fill-opacity:0;stroke:#1a1a1a" />
    <path
       d="m 398.60143,701.59094 c -0.11836,3.92104 -0.11986,7.84446 -0.1034,11.76686 0,0 -5.03647,2.56621 -5.03647,2.56621 l 0,0 c 0.0162,-3.88726 0.0165,-7.77563 -0.1034,-11.66149 0,0 5.24327,-2.67158 5.24327,-2.67158 z"
       id="path3217"
       style="fill:#000000;fill-opacity:0;stroke:#1a1a1a" />
    <path
       d="m 417.61863,656.83367 c 5.97545,8.07562 8.09744,18.05029 9.95549,27.71322 2.1315,13.88639 2.57253,27.9499 3.01511,41.9691 -0.008,7.30415 0.63399,14.64496 0.0165,21.93395 -0.94204,5.72113 -2.656,11.26519 -4.37864,16.78799 -1.51532,4.55476 -3.1649,5.38122 -8.47692,7.69613 -1.85644,0.80901 -6.34292,-0.77818 -8.16955,-1.28702 -0.90701,-0.3583 -1.81402,-0.71659 -2.72102,-1.07489 0,0 4.64173,-3.11626 4.64173,-3.11626 l 0,0 c 0.89542,0.34238 1.79084,0.68475 2.68627,1.02712 1.76123,0.46569 3.77238,1.11033 5.6216,1.15256 0.80588,0.0184 2.69061,-1.04551 2.40042,-0.29345 -0.43468,1.12653 -1.85896,1.73408 -3.04458,1.96285 -1.35791,0.26201 4.20803,-3.80372 1.95504,-3.65935 1.76826,-5.49141 3.52627,-11.00283 4.49107,-16.70491 0.64902,-7.33485 0.26117,-14.73052 0.40913,-22.08512 -0.12527,-14.02782 -0.51284,-28.11027 -2.8041,-41.97993 -1.92549,-9.46404 -4.12609,-19.45324 -10.57645,-26.99094 0,0 4.97886,-3.05105 4.97886,-3.05105 z"
       id="path3219"
       style="fill:#000000;fill-opacity:0;stroke:#1a1a1a" />
    <path
       d="m 505.37794,661.46679 c 2.79323,2.20289 5.30656,4.45257 7.02687,7.5983 0.36678,0.99293 0.84839,1.98984 0.76326,3.09579 -0.31328,4.06976 -4.01188,6.90197 -6.72859,9.45281 -3.75465,3.38702 -7.76189,6.44927 -11.82765,9.44636 0,0 -5.27113,2.08923 -5.27113,2.08923 l 0,0 c 4.1286,-3.00273 8.22129,-6.03812 12.02492,-9.45383 2.52901,-2.35495 6.27299,-5.05303 6.6738,-8.83308 0.10519,-0.99201 -0.36433,-2.00894 -0.68331,-2.90384 -1.62783,-3.1072 -4.08646,-5.33667 -6.95078,-7.3304 0,0 4.97261,-3.16134 4.97261,-3.16134 z"
       id="path3221"
       style="fill:#000000;fill-opacity:0;stroke:#1a1a1a" />
    <path
       d="m 512.74867,696.54018 c -0.29527,4.18916 0.2964,8.65057 -1.19891,12.67757 -0.3317,0.89331 -0.85321,1.70416 -1.27981,2.55624 -1.30194,1.89051 -1.59945,2.5608 -3.27759,4.09734 -1.13099,1.03555 -2.9387,2.23593 -4.24136,3.00734 -4.85434,2.87465 -5.8075,3.37803 -9.62495,5.47776 -3.96941,2.25342 -7.89524,4.4954 -12.29127,5.78883 -0.48566,0.10743 -0.97133,0.21487 -1.45699,0.32231 0,0 4.63234,-3.52777 4.63234,-3.52777 l 0,0 c 0.46943,-0.11151 0.93886,-0.22302 1.40829,-0.33453 4.29992,-1.33115 8.15527,-3.57688 12.06831,-5.76641 0.82716,-0.45885 2.27669,-2.30003 2.48148,-1.37656 0.20652,0.93127 -1.53959,1.22003 -2.46401,1.45531 -0.85547,0.21773 1.51554,-0.90719 2.24774,-1.40027 1.5555,-1.0475 2.58737,-1.81888 3.81323,-3.2553 0.58568,-0.68629 1.06313,-1.45801 1.5947,-2.18701 0.4431,-0.81277 0.9852,-1.57893 1.3293,-2.43831 1.56486,-3.90818 1.02483,-8.33376 1.01623,-12.42496 0,0 5.24327,-2.67158 5.24327,-2.67158 z"
       id="path3223"
       style="fill:#000000;fill-opacity:0;stroke:#1a1a1a" />
    <path
       d="m 512.75739,715.6078 c -0.31831,6.39219 -0.69904,12.77938 -0.91709,19.17653 -0.12935,5.08415 -0.17794,10.17023 -0.1599,15.2559 0.0141,2.15038 0.0901,1.12481 -0.18893,3.07937 0,0 -5.24591,2.55711 -5.24591,2.55711 l 0,0 c 0.40815,-1.88528 0.28224,-0.87785 0.31142,-3.02984 0.0794,-5.13191 0.17395,-10.2635 0.39273,-15.39184 0.21998,-6.3188 0.67507,-12.6463 0.54697,-18.96676 0,0 5.26071,-2.68047 5.26071,-2.68047 z"
       id="path3225"
       style="fill:#000000;fill-opacity:0;stroke:#1a1a1a" />
    <path
       d="m 534.73501,655.95938 c 4.06982,1.08101 7.70682,3.21484 11.22272,5.46984 2.4865,1.93295 5.10521,3.71112 7.49883,5.75927 1.23252,0.99441 0.61182,0.54028 1.85512,1.37186 0,0 -4.95886,3.16242 -4.95886,3.16242 l 0,0 c -1.24722,-0.89465 -0.62778,-0.41492 -1.85362,-1.44521 -2.35282,-2.03736 -4.93737,-3.80079 -7.3638,-5.7497 -3.49832,-2.25976 -7.11199,-4.40618 -11.25663,-5.21884 0,0 4.85624,-3.34964 4.85624,-3.34964 z"
       id="path3227"
       style="fill:#000000;fill-opacity:0;stroke:#1a1a1a" />
    <path
       d="m 530.89708,690.15887 c 5.68177,0.62415 11.40589,0.74181 17.11639,0.84619 4.30466,-0.11519 8.59355,-0.52299 12.88942,-0.79788 2.5855,-0.17969 5.17688,-0.17971 7.76694,-0.18896 2.2691,-0.12085 4.46674,-0.79362 6.42575,-1.93303 0,0 -4.60442,3.70095 -4.60442,3.70095 l 0,0 c -2.053,0.98058 -4.25615,1.61524 -6.54415,1.66708 -2.57469,0.017 -5.14983,0.0609 -7.72148,0.1946 -4.23801,0.22904 -8.47154,0.59927 -12.71805,0.61557 -5.79864,-0.15514 -11.6016,-0.28708 -17.38867,-0.70515 0,0 4.77827,-3.39937 4.77827,-3.39937 z"
       id="path3229"
       style="fill:#000000;fill-opacity:0;stroke:#1a1a1a" />
    <path
       d="m 534.02378,712.24313 c 6.51689,0.13702 13.03579,0.11622 19.55373,0.11022 4.83355,0.17079 9.63486,-0.24235 14.4357,-0.7268 1.55508,-0.33829 0.88876,-0.1037 2.0308,-0.60581 0,0 -4.6788,3.65126 -4.6788,3.65126 l 0,0 c -1.14437,0.31378 -0.47815,0.15901 -2.01119,0.40666 -4.72675,0.40877 -9.45402,0.68469 -14.20221,0.49015 -6.61909,-0.006 -13.23904,-0.0243 -19.85713,0.11022 0,0 4.7291,-3.4359 4.7291,-3.4359 z"
       id="path3231"
       style="fill:#000000;fill-opacity:0;stroke:#1a1a1a" />
    <path
       d="m 545.0561,698.81104 c 0.10656,5.34541 0.47134,10.68288 0.75138,16.02152 0.18043,3.11545 0.23307,6.23573 0.26716,9.35555 -0.0428,2.41905 0.39725,4.80528 0.99154,7.13877 0,0 -5.16265,2.7942 -5.16265,2.7942 l 0,0 c -0.60059,-2.37555 -1.08683,-4.81008 -1.04562,-7.27179 0.004,-3.13826 -0.0217,-6.27648 -0.1074,-9.41373 -0.16123,-5.33025 -0.40013,-10.66023 -0.90278,-15.97072 0,0 5.20837,-2.6538 5.20837,-2.6538 z"
       id="path3233"
       style="fill:#000000;fill-opacity:0;stroke:#1a1a1a" />
    <path
       d="m 529.96715,741.39562 c 6.82845,-0.32457 13.66266,-0.50126 20.49677,-0.65253 6.5895,-0.14456 13.17112,0.37956 19.75434,0.61511 6.9217,0.22949 13.84772,0.27143 20.77261,0.24967 1.4974,0.15613 3.60191,-0.44007 4.96048,0.4905 0,0 -5.06247,3.24162 -5.06247,3.24162 l 0,0 c -1.21838,-0.7608 -3.13985,-0.20234 -4.42667,-0.44487 -6.90573,-0.083 -13.81247,-0.11963 -20.71637,-0.31197 -6.56909,-0.23648 -13.13678,-0.71779 -19.71195,-0.60824 -6.92598,0.11655 -13.86363,0.2473 -20.76379,0.89881 0,0 4.69705,-3.4781 4.69705,-3.4781 z"
       id="path3235"
       style="fill:#000000;fill-opacity:0;stroke:#1a1a1a" />
  </g>
</svg>
